<?xml version="1.0" standalone="no"?>
<!DOCTYPE svg PUBLIC "-//W3C//DTD SVG 20010904//EN"
 "http://www.w3.org/TR/2001/REC-SVG-20010904/DTD/svg10.dtd">
<svg version="1.0" xmlns="http://www.w3.org/2000/svg"
 width="1345.000000pt" height="653.000000pt" viewBox="0 0 1345.000000 653.000000"
 preserveAspectRatio="xMidYMid meet">
<metadata>
Created by potrace 1.16, written by Peter Selinger 2001-2019
</metadata>
<g transform="translate(0.000000,653.000000) scale(0.100000,-0.100000)"
fill="#000000" stroke="none">
<path d="M0 3265 l0 -3265 3311 0 c3081 0 3315 1 3359 17 44 16 50 16 91 0 42
-16 274 -17 3362 -17 l3317 0 0 3265 0 3265 -6720 0 -6720 0 0 -3265z m12173
3062 c20 -15 49 -44 64 -64 25 -33 28 -45 28 -113 0 -68 -3 -80 -28 -113 -15
-20 -44 -49 -64 -64 l-36 -28 -312 0 -312 0 -36 28 c-59 45 -89 92 -95 147 -7
74 5 113 48 162 69 79 65 78 406 75 l301 -2 36 -28z m-10843 -72 c42 -22 60
-53 60 -105 0 -83 -48 -120 -155 -120 l-65 0 0 120 0 120 65 0 c39 0 78 -6 95
-15z m377 -69 c61 -53 21 -156 -62 -156 -21 0 -44 9 -62 24 -61 53 -21 156 62
156 21 0 44 -9 62 -24z m103 14 c0 -7 6 -7 19 0 32 17 69 12 85 -12 11 -15 16
-45 16 -90 0 -66 -1 -68 -25 -68 -24 0 -25 3 -25 59 0 67 -15 90 -49 71 -18
-9 -21 -20 -21 -70 0 -57 -1 -60 -25 -60 -25 0 -25 1 -25 90 0 89 0 90 25 90
14 0 25 -5 25 -10z m285 4 c19 -8 45 -55 45 -84 0 -18 -6 -20 -66 -20 -60 0
-65 -2 -53 -16 9 -12 24 -15 51 -11 24 3 41 0 48 -8 15 -18 -16 -35 -65 -35
-48 0 -95 44 -95 90 0 61 74 107 135 84z m430 -19 c56 -55 18 -155 -60 -155
-51 0 -85 36 -85 90 0 54 34 90 85 90 25 0 44 -8 60 -25z m400 0 c14 -13 25
-36 25 -50 0 -25 -1 -25 -75 -25 -79 0 -88 -7 -55 -40 22 -22 60 -26 90 -10
12 6 21 7 25 1 8 -15 -29 -31 -70 -31 -50 0 -85 36 -85 88 0 82 90 123 145 67z
m4955 -1788 l0 -43 35 4 c53 6 65 -10 65 -89 l0 -69 -30 0 c-28 0 -29 1 -32
58 -2 43 -7 57 -18 57 -11 0 -16 -14 -18 -57 -3 -57 -4 -58 -32 -58 l-30 0 0
120 0 120 30 0 c29 0 30 -2 30 -43z m-2812 11 c-2 -19 -10 -24 -40 -26 -33 -3
-38 -7 -38 -28 0 -21 5 -24 35 -24 28 0 35 -4 35 -20 0 -16 -7 -20 -35 -20
-35 0 -35 0 -35 -45 0 -43 -1 -45 -30 -45 l-30 0 0 115 0 115 71 0 c67 0 70
-1 67 -22z m2142 -23 c0 -16 6 -25 15 -25 8 0 15 -9 15 -20 0 -11 -7 -20 -15
-20 -11 0 -15 -11 -15 -40 0 -29 4 -40 15 -40 8 0 15 -9 15 -20 0 -16 -7 -20
-33 -20 -45 0 -57 15 -57 72 0 36 -4 48 -15 48 -8 0 -15 9 -15 20 0 11 7 20
15 20 8 0 15 9 15 19 0 20 12 29 43 30 12 1 17 -7 17 -24z m560 0 c0 -16 6
-25 15 -25 8 0 15 -9 15 -20 0 -11 -7 -20 -15 -20 -11 0 -15 -11 -15 -40 0
-29 4 -40 15 -40 8 0 15 -9 15 -20 0 -16 -7 -20 -33 -20 -45 0 -57 15 -57 72
0 36 -4 48 -15 48 -8 0 -15 9 -15 20 0 11 7 20 15 20 8 0 15 9 15 19 0 20 12
29 43 30 12 1 17 -7 17 -24z m-2354 -36 c8 -7 14 -6 19 1 9 14 68 13 83 -2 7
-7 12 -40 12 -80 l0 -68 -30 0 c-28 0 -29 1 -32 58 -2 43 -7 57 -18 57 -11 0
-16 -14 -18 -57 -3 -57 -4 -58 -32 -58 -28 0 -29 1 -32 58 -2 43 -7 57 -18 57
-11 0 -16 -14 -18 -57 -3 -57 -4 -58 -32 -58 l-30 0 0 79 0 80 67 0 c37 0 73
-5 79 -10z m294 -36 l13 -48 15 48 c14 41 19 47 44 47 15 0 28 -2 28 -4 0 -17
-74 -194 -87 -208 -9 -11 -30 -18 -50 -18 -26 0 -33 4 -33 20 0 13 7 20 20 20
41 0 38 32 -14 153 l-16 37 34 0 c32 0 34 -3 46 -47z m260 27 c28 -28 27 -87
-2 -117 -31 -33 -100 -32 -133 2 -56 55 -15 135 70 135 32 0 51 -6 65 -20z
m102 -37 c3 -50 6 -58 23 -58 17 0 20 8 23 58 3 56 4 57 32 57 l30 0 0 -80 0
-79 -72 2 c-66 2 -74 4 -85 27 -7 14 -13 49 -13 78 0 51 1 52 30 52 28 0 29
-1 32 -57z m488 37 c11 -11 20 -31 20 -45 0 -23 -3 -25 -51 -25 -36 0 -49 -4
-46 -12 2 -8 20 -13 41 -12 32 1 37 -1 34 -20 -4 -31 -88 -36 -117 -7 -29 29
-28 87 1 118 28 30 89 32 118 3z m89 -5 c2 -11 8 -31 13 -45 10 -24 11 -23 24
23 13 43 17 47 45 47 34 0 34 4 -4 -95 -22 -56 -25 -60 -58 -63 -35 -3 -35 -3
-58 65 -12 37 -25 74 -28 81 -4 10 4 13 28 10 24 -2 35 -9 38 -23z m253 8 c10
-9 18 -29 18 -45 0 -27 -2 -28 -51 -28 -36 0 -49 -4 -46 -12 2 -8 21 -13 46
-12 37 1 42 -2 39 -20 -3 -18 -11 -21 -54 -24 -46 -3 -54 0 -73 24 -27 34 -27
74 0 108 16 20 29 26 61 26 25 0 49 -7 60 -17z m199 -9 c5 -14 9 -50 9 -80 0
-53 0 -54 -30 -54 -30 0 -30 1 -30 54 0 30 -5 58 -10 61 -22 13 -40 -17 -40
-66 0 -48 -1 -49 -30 -49 l-30 0 0 79 0 79 76 0 c71 1 76 -1 85 -24z m295 -1
c12 -56 16 -58 28 -18 10 35 15 40 41 40 26 0 30 -5 41 -45 l11 -45 8 48 c7
44 9 47 37 47 23 0 29 -4 24 -16 -3 -8 -14 -44 -23 -80 -17 -62 -18 -64 -50
-64 -29 0 -33 4 -39 35 -3 19 -10 35 -14 35 -4 0 -11 -16 -14 -35 -6 -31 -10
-35 -39 -35 -32 0 -33 2 -50 64 -9 36 -20 72 -23 80 -5 12 1 16 25 16 25 0 32
-5 37 -27z m766 -30 c2 -44 7 -58 18 -58 11 0 16 14 18 58 3 56 4 57 32 57
l30 0 0 -79 0 -80 -70 0 c-83 0 -90 7 -90 98 0 61 0 61 30 61 28 0 29 -1 32
-57z m248 38 c0 -15 -8 -21 -37 -23 l-38 -4 33 -13 c45 -18 58 -45 37 -77 -14
-22 -22 -25 -68 -22 -45 3 -52 6 -55 26 -3 21 -1 22 37 16 48 -8 54 2 11 18
-42 14 -56 43 -35 74 13 20 24 24 65 24 43 0 50 -3 50 -19z m-1887 -1313 c75
-58 104 -141 78 -221 -15 -46 -89 -114 -133 -122 -18 -3 -267 -5 -553 -3
l-520 3 -33 23 c-131 94 -119 262 23 336 26 14 94 16 566 14 l536 -3 36 -27z
m1514 21 c38 -14 92 -67 109 -106 31 -71 12 -154 -47 -210 -19 -17 -47 -37
-62 -42 -19 -7 -229 -11 -627 -11 -398 0 -608 4 -627 11 -38 14 -92 67 -109
106 -30 69 -12 153 44 206 62 59 33 57 689 57 400 0 611 -4 630 -11z m1755
-673 c21 -2 35 0 32 5 -3 5 6 9 20 9 27 0 35 -15 14 -23 -8 -3 -6 -6 5 -6 9
-1 17 6 17 14 0 8 9 15 21 15 11 0 17 -5 14 -10 -4 -6 -11 -7 -17 -4 -7 4 -8
2 -4 -5 4 -6 12 -9 17 -6 5 4 9 2 9 -3 0 -5 14 -6 31 -4 17 3 26 8 20 12 -6 3
3 7 21 7 18 1 69 4 113 7 67 5 74 4 40 -5 -103 -27 -125 -34 -125 -42 0 -9 24
-7 99 9 29 6 33 5 29 -12 -3 -17 -14 -19 -123 -20 -80 -1 -105 1 -75 6 l45 7
-47 1 c-27 1 -48 -3 -50 -9 -3 -9 -10 -9 -27 1 -15 7 -21 8 -17 1 5 -8 -37
-11 -142 -10 l-149 1 -1 29 c0 19 4 29 14 29 8 0 13 4 10 8 -4 8 128 6 206 -2z
m-2351 -388 c0 -9 2 -9 6 1 4 9 8 10 12 3 5 -8 26 -8 73 0 55 10 82 9 164 -6
55 -9 105 -18 112 -18 11 -1 16 -12 13 -30 -1 -12 38 -20 68 -13 20 4 34 1 45
-10 24 -24 20 -27 -16 -10 -32 15 -27 10 35 -30 66 -43 93 -120 85 -240 -3
-47 -5 -50 -32 -53 -18 -2 -26 0 -21 7 3 6 2 11 -4 11 -5 0 -20 21 -33 47 -58
117 -196 152 -296 77 l-37 -29 63 -3 c57 -3 62 -5 62 -25 0 -21 -5 -23 -76
-26 -43 -1 -82 -8 -89 -15 -7 -6 -34 -11 -61 -11 -43 1 -49 4 -52 24 -3 18 -6
20 -18 10 -14 -12 -158 -9 -170 4 -4 3 -4 13 -1 22 5 12 25 15 102 15 57 0 95
-4 95 -10 0 -5 4 -10 8 -10 10 0 3 130 -9 150 -7 13 -8 13 -9 -1 0 -20 -54
-95 -77 -108 -25 -13 -70 27 -76 67 -8 49 -21 63 -80 83 -53 18 -58 18 -76 2
-11 -9 -18 -20 -15 -24 5 -9 -44 -63 -60 -65 -6 -1 -13 -3 -16 -4 -15 -6 -82
-5 -86 2 -3 4 2 20 10 36 8 16 12 33 8 37 -4 3 -2 6 3 4 6 -1 39 12 75 29 36
18 71 32 78 32 6 0 12 5 12 10 0 6 -5 10 -12 10 -25 0 9 18 72 38 36 12 88 23
115 25 28 2 62 4 78 5 15 1 27 -3 28 -10z"/>
<path d="M11537 6336 c-110 -30 -166 -144 -127 -261 15 -45 79 -102 127 -112
49 -10 526 -10 576 0 45 10 105 60 123 104 17 39 18 121 3 160 -14 39 -57 82
-99 101 -48 22 -530 29 -603 8z"/>
<path d="M6770 3028 c-148 -75 -120 -293 42 -328 37 -8 221 -10 628 -8 570 3
575 3 616 25 47 25 68 53 83 111 24 87 -31 188 -114 211 -27 7 -228 11 -625
11 l-586 0 -44 -22z"/>
</g>
</svg>
