<?xml version="1.0" standalone="no"?>
<!DOCTYPE svg PUBLIC "-//W3C//DTD SVG 20010904//EN"
 "http://www.w3.org/TR/2001/REC-SVG-20010904/DTD/svg10.dtd">
<svg version="1.0" xmlns="http://www.w3.org/2000/svg"
 width="1350.000000pt" height="654.000000pt" viewBox="0 0 1350.000000 654.000000"
 preserveAspectRatio="xMidYMid meet">
<metadata>
Created by potrace 1.16, written by Peter Selinger 2001-2019
</metadata>
<g transform="translate(0.000000,654.000000) scale(0.100000,-0.100000)"
fill="#000000" stroke="none">
<path d="M0 3270 c0 -2173 3 -3270 10 -3270 6 0 10 52 10 135 l0 135 2924 0
c2330 0 2925 3 2929 13 4 9 6 9 6 0 1 -10 190 -13 911 -13 501 0 910 3 910 8
-1 4 -51 79 -113 168 -62 88 -204 294 -317 457 l-205 296 -152 1 -153 0 0 219
0 219 -101 149 c-56 81 -112 162 -124 178 -12 17 -25 37 -29 45 -15 30 40 -39
103 -128 35 -51 66 -90 70 -88 4 3 13 -9 20 -25 12 -27 31 -40 31 -20 0 4 11
6 25 3 30 -5 32 7 5 41 -12 15 -16 27 -10 29 17 5 -9 59 -81 164 -29 43 -75
149 -61 140 5 -3 75 -100 157 -215 l149 -211 84 0 c64 0 81 3 76 12 -4 7 -31
47 -59 88 -29 41 -93 139 -144 218 -76 120 -89 147 -81 163 6 10 16 19 23 19
8 0 8 3 -1 9 -11 7 -11 9 2 14 10 4 21 -1 28 -13 7 -11 18 -20 23 -20 6 0 51
-43 100 -95 49 -52 91 -92 93 -90 2 2 -9 26 -26 54 -31 50 -32 64 -4 53 14 -5
15 -3 5 9 -7 9 -20 33 -29 55 l-16 39 24 -22 c13 -13 28 -23 34 -23 8 -1 36
-37 126 -167 47 -69 102 -135 89 -106 -15 31 -14 38 6 22 16 -13 0 20 -66 136
l-23 40 27 -30 c14 -16 39 -43 54 -60 15 -16 71 -92 125 -168 l97 -137 75 0
76 0 -27 48 c-15 26 -33 54 -40 62 -19 23 -116 182 -113 185 2 2 19 -20 38
-48 19 -29 66 -96 104 -149 l68 -98 60 0 c45 0 57 3 52 12 -4 7 -39 60 -77
117 -38 57 -64 100 -58 97 19 -12 12 4 -34 74 -24 38 -52 84 -61 102 l-16 33
36 -34 c20 -19 48 -53 63 -75 16 -23 38 -52 51 -67 12 -14 54 -71 92 -125 38
-54 75 -107 82 -116 7 -10 23 -18 35 -18 20 0 9 19 -85 163 -147 221 -172 261
-167 265 2 3 16 -9 30 -27 21 -24 29 -28 39 -19 7 7 10 22 8 35 l-4 23 31 -17
c17 -10 31 -21 31 -25 0 -5 9 -8 20 -8 14 0 20 -7 20 -22 0 -12 3 -18 6 -15 4
4 29 -26 55 -66 27 -39 58 -83 70 -97 l21 -25 -14 25 c-9 14 -65 106 -125 205
-60 99 -116 191 -123 205 l-13 25 24 -21 c20 -18 28 -20 49 -12 14 6 42 12 62
13 20 2 41 6 47 9 5 4 34 -28 63 -71 84 -125 292 -444 322 -495 l28 -48 63 0
64 0 -81 128 c-142 223 -288 466 -287 476 0 6 3 5 6 -1 2 -7 11 -13 19 -13 9
0 12 -4 9 -10 -3 -5 3 -10 14 -10 10 0 21 5 23 11 2 7 17 7 48 0 36 -8 47 -8
56 4 8 11 21 -2 61 -63 85 -130 197 -302 268 -412 77 -119 73 -115 80 -108 3
3 -35 69 -85 147 -50 78 -88 147 -84 153 5 7 2 8 -6 3 -8 -5 -11 -3 -8 6 3 8
-11 43 -30 78 -20 36 -31 61 -24 57 10 -6 72 -92 72 -100 0 -2 13 -18 30 -36
16 -17 57 -73 91 -123 34 -51 68 -99 77 -107 8 -8 1 5 -15 30 -157 236 -373
578 -373 589 0 3 14 7 30 8 17 1 42 3 58 4 15 2 39 -1 54 -4 19 -5 28 -3 28 5
0 13 47 -50 133 -176 34 -51 63 -84 69 -80 7 4 8 2 4 -4 -4 -7 7 -32 25 -57
30 -41 50 -62 33 -32 -5 8 -2 7 10 -2 9 -8 15 -20 12 -28 -3 -8 -1 -11 4 -8 5
3 20 -16 32 -42 13 -26 28 -51 35 -56 7 -4 10 -14 7 -22 -4 -8 1 -18 10 -21 9
-3 14 -10 11 -14 -3 -5 0 -12 8 -17 7 -4 18 -19 25 -33 6 -14 28 -46 47 -72
19 -27 32 -48 28 -48 -3 0 2 -10 13 -22 11 -13 29 -40 39 -60 11 -21 23 -38
27 -38 5 0 8 -4 8 -9 0 -10 39 -75 124 -206 32 -49 75 -116 95 -147 20 -32 77
-120 126 -196 104 -159 148 -228 333 -517 74 -116 141 -217 149 -225 14 -13
15 -13 8 0 -9 16 -554 880 -785 1245 -271 427 -495 794 -489 800 3 2 20 -18
39 -46 21 -31 39 -48 48 -44 7 3 20 -2 29 -11 21 -21 30 -8 10 14 -10 10 -17
21 -17 24 0 9 34 4 43 -7 5 -5 5 0 2 13 -11 39 4 24 56 -55 28 -43 53 -80 56
-83 4 -3 -33 70 -80 161 -48 92 -87 170 -87 175 0 4 11 -3 25 -16 17 -16 25
-19 25 -9 0 12 2 12 9 0 8 -12 12 -12 26 2 9 10 25 17 35 17 10 0 20 4 22 9 8
22 52 -14 93 -76 66 -100 81 -118 90 -104 4 7 4 15 1 18 -3 4 4 11 17 18 27
13 27 14 132 -160 43 -71 168 -278 278 -460 110 -181 219 -361 242 -400 23
-38 149 -245 279 -460 131 -214 264 -432 295 -482 31 -51 60 -93 64 -93 10 0
-1 20 -185 328 -77 129 -136 237 -132 244 4 6 3 8 -3 5 -6 -4 -27 20 -47 54
-39 65 -42 74 -24 63 7 -4 8 -3 4 5 -4 6 -12 8 -18 5 -8 -5 -9 -1 -5 10 4 9 3
15 -1 12 -12 -7 -73 104 -65 116 3 6 1 8 -5 4 -13 -8 -65 82 -58 101 3 7 0 12
-6 10 -14 -3 -46 54 -40 72 4 9 1 12 -6 7 -7 -4 -15 0 -19 11 -4 10 -22 41
-41 70 -21 31 -31 57 -26 65 4 7 4 10 -1 6 -12 -11 -36 28 -29 46 4 10 1 16
-8 16 -8 0 -15 6 -15 13 0 6 -4 20 -8 30 -12 29 11 19 39 -18 15 -19 24 -35
20 -35 -3 0 5 -15 18 -32 22 -31 43 -64 89 -146 12 -21 17 -42 13 -57 -4 -15
-2 -25 4 -25 6 0 12 8 14 18 3 12 10 6 27 -23 22 -40 33 -58 101 -172 19 -32
37 -62 40 -68 3 -5 17 -28 32 -51 53 -81 68 -116 58 -135 -8 -14 -6 -16 8 -12
22 5 28 -2 77 -92 21 -38 54 -95 75 -125 20 -30 72 -115 115 -187 43 -73 80
-131 83 -129 2 3 -23 49 -56 103 -32 54 -92 154 -132 223 -40 69 -85 145 -100
170 -327 541 -948 1597 -999 1697 -12 24 -17 43 -12 43 5 0 11 -5 13 -12 4
-10 14 -9 46 1 39 13 42 13 83 -18 54 -39 62 -39 54 2 l-7 32 27 -37 c30 -44
38 -46 61 -16 11 16 15 17 11 6 -8 -24 8 -23 44 3 27 19 56 18 44 -2 -3 -5 0
-6 8 -4 7 3 19 -5 27 -20 7 -14 15 -23 17 -21 3 2 -9 31 -26 65 -36 71 -38 81
-11 56 19 -17 20 -17 20 0 0 15 6 17 39 12 40 -5 45 -9 128 -106 13 -14 23
-29 23 -33 0 -5 5 -8 11 -8 8 0 8 4 -1 15 -6 8 -10 19 -8 25 1 5 32 -36 67
-92 36 -57 93 -147 128 -200 35 -54 63 -101 63 -105 0 -5 14 -23 30 -41 16
-18 30 -41 30 -52 0 -10 7 -20 15 -24 8 -3 15 -12 15 -21 0 -14 16 -38 50 -74
9 -9 24 -38 34 -64 10 -26 24 -47 32 -47 8 0 13 -3 12 -7 -4 -17 14 -54 43
-84 16 -17 29 -41 29 -54 0 -12 9 -30 20 -40 11 -10 20 -25 20 -33 0 -7 9 -27
20 -43 12 -15 30 -49 41 -74 11 -25 24 -43 29 -40 4 3 13 -9 19 -26 8 -22 15
-30 27 -25 12 4 14 1 9 -14 -4 -14 -2 -20 9 -20 8 0 17 -9 21 -19 3 -10 16
-22 28 -25 35 -9 40 -7 27 9 -10 12 -10 15 3 15 37 0 31 16 -74 205 -18 33
-42 78 -53 100 -11 22 -32 56 -47 76 -16 20 -33 48 -38 63 -6 14 -18 26 -28
26 -14 0 -15 2 -4 9 11 7 11 10 -1 17 -8 5 -20 25 -28 44 -7 19 -22 45 -33 58
-11 12 -17 22 -13 22 4 0 -7 20 -24 44 -16 25 -30 47 -30 51 0 13 -40 94 -50
100 -5 3 -6 13 -3 23 3 9 2 14 -2 9 -5 -4 -19 13 -32 39 -28 56 -29 62 -3 39
11 -10 20 -25 20 -33 0 -9 8 -25 19 -36 21 -24 233 -376 271 -451 14 -27 33
-58 43 -69 9 -11 17 -23 17 -27 0 -8 23 -46 243 -404 87 -143 163 -264 168
-269 4 -5 7 12 6 38 -1 25 1 46 4 46 14 0 17 45 5 60 -7 8 -19 25 -25 37 -10
19 -9 22 4 17 8 -3 13 -10 10 -14 -3 -4 1 -10 9 -13 13 -5 185 -287 364 -597
110 -188 111 -190 131 -190 16 0 5 26 -71 158 -204 354 -348 619 -328 607 7
-5 9 2 4 21 l-7 28 51 -37 c29 -20 54 -37 57 -37 2 0 -9 30 -25 66 -17 36 -30
68 -30 70 0 2 12 -9 28 -25 29 -30 84 -53 61 -25 -16 20 -8 18 42 -10 79 -45
173 -38 230 15 17 16 37 29 43 29 7 0 25 19 41 42 30 46 36 99 15 153 -7 19
-7 31 0 41 8 9 8 19 0 34 -6 12 -10 24 -7 26 2 2 17 -20 32 -48 16 -29 134
-237 263 -463 129 -226 248 -435 265 -465 16 -30 38 -64 48 -76 11 -11 19 -26
19 -32 0 -6 9 -26 20 -44 11 -18 20 -26 20 -18 0 12 2 13 9 1 5 -7 14 -12 20
-10 7 3 -6 33 -32 75 -69 111 -333 551 -444 739 -55 94 -128 217 -162 273 -63
107 -70 129 -49 150 7 7 11 28 9 47 -3 38 8 44 33 19 9 -8 16 -11 16 -6 0 6
-15 20 -32 32 -22 14 -26 19 -12 15 17 -4 22 -1 20 12 0 9 7 19 16 21 16 3 60
-59 263 -373 32 -49 59 -92 61 -94 8 -9 33 22 27 33 -4 6 -8 16 -8 21 -2 31
-18 74 -26 69 -17 -10 -28 6 -19 30 5 15 5 27 -2 34 -6 6 -8 16 -5 24 3 8 9 4
16 -12 7 -14 18 -36 26 -50 8 -14 15 -33 15 -42 0 -10 6 -18 13 -19 13 0 113
-166 245 -404 43 -77 136 -242 207 -367 126 -223 130 -228 161 -228 l33 0 -56
98 c-284 501 -633 1133 -633 1147 0 4 6 2 14 -4 10 -9 16 -8 26 4 24 29 55 7
169 -121 19 -22 50 -63 68 -93 18 -30 33 -51 33 -45 0 5 -16 35 -35 67 -37 61
-39 67 -27 67 4 0 32 -38 62 -85 30 -47 58 -85 63 -85 4 0 3 9 -3 20 -6 11 -8
26 -3 33 4 6 8 30 9 51 3 53 23 89 41 75 16 -14 16 -13 3 31 -8 29 -7 32 3 18
16 -20 67 -35 67 -19 0 13 31 -3 65 -34 44 -40 87 -75 94 -75 3 0 18 -19 32
-43 34 -53 290 -525 434 -797 122 -230 113 -215 120 -208 3 3 -102 221 -235
484 -178 356 -241 491 -244 524 -4 39 -3 42 8 28 7 -10 16 -18 20 -18 11 0 57
-58 103 -129 23 -36 46 -71 52 -78 6 -6 13 -23 17 -37 6 -26 20 -41 39 -41 5
0 10 -11 10 -25 0 -14 5 -24 10 -23 6 1 11 -9 11 -22 1 -14 9 -32 18 -40 9 -9
16 -22 16 -28 0 -7 12 -23 25 -36 14 -13 23 -26 21 -29 -3 -2 2 -11 10 -20 14
-14 14 -16 0 -24 -9 -5 -16 -14 -16 -20 0 -6 6 -6 15 2 10 8 19 9 25 4 4 -5
63 -114 130 -241 67 -128 126 -233 132 -233 14 0 4 25 -73 171 -39 74 -109
207 -155 297 -46 89 -90 172 -98 185 -24 36 -48 100 -35 92 7 -5 10 -3 7 6 -3
8 -11 14 -18 14 -7 0 -15 6 -18 14 -3 9 0 11 8 6 15 -9 16 -11 -24 80 -23 52
-24 57 -6 35 11 -14 30 -41 41 -60 10 -19 35 -55 54 -80 18 -25 34 -49 34 -54
1 -5 12 -24 26 -41 13 -18 21 -35 18 -39 -4 -3 -1 -6 5 -6 7 0 12 -6 12 -13 0
-7 29 -57 65 -111 36 -55 68 -109 71 -120 4 -12 17 -35 30 -52 13 -17 24 -36
24 -41 0 -6 18 -40 40 -74 21 -35 51 -87 66 -115 15 -28 35 -62 46 -75 10 -13
-17 46 -60 131 -280 547 -316 621 -297 614 7 -3 15 4 18 15 3 12 10 21 17 21
6 0 9 -4 5 -9 -3 -5 -1 -13 5 -16 8 -5 7 -11 -1 -21 -9 -11 -9 -14 0 -14 14 0
56 -37 56 -50 0 -12 58 -89 68 -90 4 0 7 -5 7 -11 0 -6 14 -30 30 -54 17 -24
30 -46 30 -49 0 -4 24 -39 53 -79 29 -39 61 -85 71 -101 10 -15 26 -31 36 -33
10 -3 16 -11 14 -18 -3 -7 4 -19 15 -27 12 -8 19 -17 16 -20 -7 -7 44 -118 54
-118 5 0 9 37 10 81 2 81 2 81 -22 77 -13 -3 -32 1 -42 9 -24 17 -13 28 14 13
30 -15 27 5 -4 34 -27 25 -31 36 -15 36 6 0 20 -16 31 -35 12 -19 24 -35 28
-35 12 0 11 84 -2 92 -9 6 -9 8 1 8 16 0 16 47 0 54 -10 5 -10 7 0 12 16 7 18
2869 2 2879 -6 3 -10 1 -10 -5 0 -18 -60 -88 -81 -93 -23 -6 -23 -6 -1 63 22
72 30 83 54 77 51 -14 48 -95 48 1363 l0 1358 -56 51 c-30 28 -62 51 -70 51
-21 0 -17 16 9 28 28 13 6 15 -47 3 -36 -9 -69 -1 -86 20 -3 4 -15 9 -27 13
-13 4 -23 12 -23 17 0 15 -70 10 -86 -6 -9 -8 -22 -15 -29 -15 -9 0 -12 6 -9
15 5 13 -21 15 -205 15 -181 0 -211 -2 -211 -15 0 -8 5 -15 10 -15 6 0 10 -7
10 -15 0 -8 5 -15 11 -15 14 0 39 -25 39 -39 0 -6 8 -11 18 -11 9 0 25 -15 35
-32 10 -18 35 -53 57 -78 22 -25 40 -49 40 -53 0 -17 -32 -18 -64 -3 -44 21
-136 104 -136 123 0 9 -6 13 -14 10 -8 -3 -27 9 -43 26 -35 39 -99 94 -124
107 -33 18 -44 10 -14 -10 37 -24 135 -120 135 -132 0 -10 -36 7 -42 19 -2 5
-24 27 -49 51 -62 58 -125 79 -243 81 l-95 2 9 -32 c5 -17 15 -38 22 -47 12
-15 11 -16 -7 -3 -11 8 -36 30 -56 49 l-36 34 -84 -5 c-46 -3 -95 -7 -109 -10
-14 -2 -35 -5 -47 -5 -15 -2 -21 -7 -17 -17 4 -8 10 -13 14 -10 10 6 33 -50
36 -90 2 -24 -5 -37 -33 -62 -20 -18 -35 -34 -32 -36 2 -2 70 -20 151 -40 308
-77 487 -202 523 -368 5 -20 18 -37 36 -48 16 -9 29 -22 29 -28 0 -7 9 -13 19
-13 24 0 38 -19 22 -29 -7 -5 -3 -15 14 -31 14 -13 25 -29 25 -36 0 -6 7 -15
16 -18 13 -5 15 -14 9 -42 -6 -34 -5 -36 14 -31 17 4 21 0 21 -19 0 -13 9 -46
20 -74 11 -28 20 -68 20 -90 0 -34 4 -41 24 -46 20 -5 27 -16 35 -55 6 -28 11
-79 11 -114 0 -59 2 -65 21 -65 16 0 19 -4 14 -17 -4 -10 -18 -54 -32 -98 -31
-101 -54 -155 -65 -155 -4 0 -8 -7 -8 -15 0 -16 -36 -72 -55 -88 -5 -5 1 -5
14 -2 26 8 26 7 -21 -62 -15 -23 -28 -47 -28 -53 0 -12 -24 -40 -34 -40 -3 0
-6 8 -6 19 0 19 -23 45 -32 36 -3 -3 -3 6 0 21 3 17 1 25 -5 21 -6 -4 -18 2
-28 13 -18 19 -17 20 13 26 22 5 32 12 32 25 0 12 7 19 20 19 11 0 20 3 20 8
-1 14 -36 49 -56 56 -19 6 -49 64 -38 75 3 3 12 -3 20 -13 7 -11 17 -16 21
-12 5 4 -1 15 -13 24 -19 16 -19 21 -8 66 7 26 10 54 7 61 -3 8 12 24 36 39
23 15 41 31 41 36 0 6 9 19 20 30 16 16 18 25 10 40 -5 10 -7 26 -4 34 4 11 1
16 -10 16 -9 0 -22 11 -28 25 -11 25 -41 34 -53 15 -3 -5 -13 -10 -21 -10 -19
0 -74 -59 -74 -80 0 -8 -9 -21 -20 -28 -12 -7 -18 -17 -15 -22 3 -5 -3 -15
-14 -22 -11 -8 -23 -26 -26 -41 -6 -24 -11 -27 -40 -24 -77 8 -92 98 -17 101
27 1 30 4 25 24 -3 12 -1 22 6 22 6 0 8 7 5 15 -4 11 -2 13 9 9 11 -4 17 3 22
26 6 25 11 31 30 28 12 -1 30 3 39 11 9 7 25 11 36 8 18 -5 49 18 38 29 -3 2
-36 0 -72 -6 -37 -6 -71 -8 -76 -5 -18 11 2 33 45 50 l44 16 -29 29 c-51 50
-100 48 -100 -4 0 -42 -12 -67 -29 -62 -9 3 -32 -3 -51 -12 -26 -13 -34 -23
-33 -40 2 -12 -1 -22 -6 -22 -5 0 -11 -9 -14 -20 -3 -11 -10 -20 -16 -20 -15
0 -14 27 0 32 16 5 -10 46 -34 54 -22 7 -22 6 -32 -25 -6 -20 -4 -23 9 -18 12
5 16 1 16 -15 0 -11 7 -26 17 -33 18 -13 10 -35 -13 -35 -8 0 -14 -10 -14 -24
0 -13 -7 -27 -15 -30 -24 -9 -33 30 -33 130 0 49 -3 97 -7 107 -5 11 -2 22 8
30 14 12 31 91 28 132 -1 11 -3 38 -4 59 -2 39 -17 54 -59 55 -19 1 -98 -73
-98 -92 0 -17 -66 -60 -79 -52 -15 9 -54 -36 -70 -81 -8 -22 -22 -50 -32 -63
l-19 -24 0 39 c0 58 19 116 39 121 10 2 31 32 47 66 19 40 52 85 93 125 45 45
60 66 51 72 -7 4 -21 5 -31 3 -22 -6 -24 5 -4 30 7 11 11 25 9 32 -5 13 13 23
56 32 14 2 28 10 33 18 4 8 28 17 52 21 25 3 45 12 45 18 0 18 -21 35 -36 29
-10 -3 -12 0 -8 10 3 8 1 18 -5 22 -18 10 -12 25 9 25 11 0 20 5 20 11 0 7
-14 8 -42 4 -39 -7 -41 -6 -25 10 9 9 17 23 17 30 0 8 9 19 20 25 11 6 20 17
20 25 0 8 5 15 10 15 6 0 10 5 10 10 0 6 -7 10 -16 10 -10 0 -14 6 -11 15 4 8
2 17 -3 20 -9 6 -69 -79 -92 -130 -15 -34 -61 -85 -77 -85 -6 0 -26 -14 -44
-31 -17 -17 -51 -47 -75 -67 -23 -19 -77 -77 -118 -129 -41 -51 -79 -93 -84
-93 -5 0 -7 -8 -3 -17 3 -10 3 -15 -2 -11 -14 13 -46 -13 -61 -49 -11 -25 -19
-33 -31 -29 -20 8 -36 -14 -22 -31 8 -8 2 -16 -20 -27 -16 -9 -34 -16 -38 -16
-14 1 -45 80 -39 97 4 8 2 21 -4 28 -12 15 -7 62 6 55 5 -3 8 -11 8 -17 -1 -7
2 -13 7 -13 5 0 9 6 9 14 0 17 -29 48 -39 42 -4 -3 -8 12 -9 32 -2 20 -5 45
-8 55 -3 10 0 17 9 17 9 0 12 9 9 28 -2 15 3 46 11 70 9 25 11 42 5 42 -6 0
-8 9 -5 20 4 15 0 20 -16 21 -17 1 -18 2 -4 6 19 5 23 28 7 38 -18 11 -11 33
9 28 15 -4 22 4 34 39 15 41 15 41 16 13 1 -25 5 -31 27 -33 14 -1 23 2 19 7
-3 5 -1 12 5 16 6 4 7 11 4 17 -4 6 -1 16 7 22 8 6 19 24 24 41 6 18 19 31 33
35 13 3 23 10 24 15 0 6 4 18 9 27 15 28 -6 30 -73 7 -35 -12 -73 -21 -86 -21
-12 0 -25 -5 -28 -9 -3 -5 -10 -7 -15 -3 -5 3 -16 0 -24 -6 -8 -7 -21 -10 -28
-7 -16 6 -44 -9 -35 -19 4 -3 18 -7 32 -6 23 0 29 -18 13 -34 -4 -4 -7 -17 -7
-29 0 -48 -70 -91 -130 -80 -32 7 -33 8 -12 16 l22 8 -19 32 c-11 18 -18 36
-15 41 3 4 0 8 -7 8 -7 0 -6 8 5 25 29 45 16 73 -19 39 -20 -20 -24 -16 -45
44 -21 60 -11 153 22 211 32 55 21 71 -48 71 -44 0 -55 -3 -51 -14 5 -12 2
-12 -21 0 -21 11 -88 14 -320 14 -198 0 -291 -3 -287 -10 4 -6 12 -10 18 -9
16 3 67 -22 67 -33 0 -4 -9 -8 -21 -8 -16 0 -19 -4 -14 -21 6 -19 4 -21 -14
-16 -14 3 -21 0 -21 -8 0 -8 -6 -15 -12 -18 -7 -2 -3 -2 10 0 12 2 22 -1 22
-7 0 -5 -8 -10 -18 -10 -26 0 -34 -11 -20 -27 18 -22 -11 -37 -33 -17 -8 7
-19 14 -23 14 -22 0 -65 46 -71 77 -5 29 -8 33 -21 22 -10 -8 -18 -9 -22 -3
-9 13 -38 24 -46 17 -3 -3 2 -19 10 -35 9 -17 13 -32 10 -35 -9 -10 -57 8 -54
19 4 11 -54 48 -74 48 -4 0 -8 -10 -8 -22 0 -21 -1 -21 -14 -3 -13 18 -15 18
-30 2 -16 -16 -29 -20 -41 -14 -2 1 -12 -9 -22 -22 -12 -18 -13 -26 -5 -29 15
-5 16 -39 1 -48 -6 -3 -9 -15 -6 -25 3 -11 1 -19 -4 -19 -5 0 -9 -9 -9 -20 0
-13 5 -18 15 -14 20 8 19 -6 -2 -23 -17 -13 -16 -14 5 -8 23 7 32 -10 9 -18
-9 -3 -7 -9 6 -24 9 -11 17 -29 17 -41 0 -24 11 -26 128 -22 34 1 62 -2 61 -7
-1 -4 -1 -15 0 -23 1 -13 3 -13 10 0 6 8 8 17 5 21 -2 4 19 7 48 6 l53 -2 6
-37 6 -38 -39 0 c-45 0 -53 24 -13 42 13 6 22 15 19 20 -3 5 -12 3 -21 -3 -12
-10 -16 -10 -23 1 -7 11 -13 6 -25 -23 -18 -45 -29 -46 -45 -8 -13 33 -46 47
-54 24 -8 -21 -9 -19 24 -53 17 -17 30 -38 30 -47 0 -9 8 -25 18 -36 16 -19
16 -20 -5 -15 -13 4 -23 4 -23 1 0 -5 30 -33 68 -64 7 -6 26 -7 42 -4 28 6 31
4 36 -24 5 -26 19 -38 78 -71 39 -22 65 -40 59 -40 -7 0 -41 17 -75 38 -35 21
-108 59 -163 86 -55 27 -108 55 -118 64 -17 15 -64 23 -143 22 -45 0 -64 15
-88 70 -18 42 -55 90 -56 73 0 -7 9 -22 20 -33 20 -20 20 -20 0 -20 -11 0 -26
12 -35 28 l-16 27 6 -40 c4 -22 13 -47 21 -56 8 -8 14 -20 14 -26 0 -6 5 -13
11 -15 10 -3 41 -78 33 -78 -3 0 -27 35 -55 77 -28 43 -56 81 -62 85 -7 4 -8
8 -4 8 12 0 -43 91 -79 130 -17 19 -35 51 -39 70 -8 42 -132 280 -146 280 -5
0 -9 -2 -9 -4 0 -3 38 -80 85 -172 47 -92 85 -169 85 -171 0 -1 -7 -3 -15 -3
-8 0 -15 7 -15 15 0 20 -17 19 -28 -1 -6 -11 -11 -13 -16 -5 -11 18 -26 13
-26 -9 0 -11 7 -37 15 -57 15 -35 15 -36 -3 -20 -10 9 -28 17 -41 17 -12 0
-24 7 -27 15 -4 8 -10 12 -16 9 -5 -3 -12 3 -15 15 -3 11 -17 26 -32 32 -15 7
-35 25 -44 41 -9 16 -25 28 -37 28 -23 0 -25 -7 -7 -29 7 -9 33 -59 57 -111
41 -91 43 -100 45 -198 1 -57 -2 -105 -7 -109 -6 -3 -7 3 -3 16 4 12 2 21 -4
21 -20 0 -11 -68 14 -116 14 -26 23 -49 21 -51 -2 -2 -41 60 -87 139 -45 79
-95 162 -111 185 -15 23 -28 46 -28 52 0 5 -5 13 -10 16 -14 9 -6 -52 14 -99
25 -59 19 -57 -26 12 -103 157 -22 -16 182 -388 146 -266 180 -329 180 -337 0
-3 -13 7 -30 23 -16 16 -30 37 -30 47 0 9 -4 17 -9 17 -5 0 -23 14 -40 31 -24
23 -35 28 -44 20 -10 -8 -17 -7 -25 1 -9 9 -15 9 -24 0 -9 -9 -9 -12 2 -12 11
0 11 -3 2 -12 -14 -14 -16 -38 -4 -38 5 0 14 10 21 23 11 22 11 22 7 -3 -5
-23 1 -28 57 -54 50 -24 168 -80 290 -138 9 -4 25 -12 35 -17 56 -30 271 -130
290 -136 100 -30 258 -125 248 -150 -3 -8 1 -21 9 -29 8 -7 11 -16 8 -20 -12
-12 -51 -6 -57 9 -3 9 0 15 9 15 8 0 15 4 15 9 0 15 -24 29 -50 28 -14 0 -37
3 -51 7 -24 7 -26 5 -22 -18 4 -19 1 -25 -13 -25 -44 -1 -94 -14 -105 -27 -9
-12 -7 -19 10 -38 15 -15 19 -26 12 -31 -6 -3 -11 1 -11 9 0 9 -4 16 -10 16
-12 0 -13 -40 -1 -59 6 -10 10 -10 16 -1 4 6 13 9 21 6 7 -3 18 3 23 12 10 16
10 16 11 0 0 -17 19 -19 75 -8 28 6 75 -1 70 -10 -3 -5 -1 -10 4 -10 6 0 11 5
11 10 0 21 28 9 32 -15 5 -26 -2 -29 -84 -27 -16 0 -28 -3 -28 -8 0 -12 36
-31 44 -23 3 3 6 2 6 -3 -1 -5 -16 -16 -34 -25 -26 -12 -33 -12 -29 -2 3 7 1
13 -5 13 -6 0 -12 -4 -14 -9 -2 -5 -20 -6 -43 -2 -22 4 -55 4 -72 0 -21 -4
-33 -3 -33 4 0 7 -5 6 -12 -2 -11 -10 -9 -15 5 -26 18 -13 18 -14 -1 -17 -19
-3 -20 -5 -7 -43 16 -44 15 -48 -9 -39 -13 5 -14 9 -5 20 7 9 8 14 1 14 -14 0
-24 48 -13 67 5 11 3 29 -7 52 -8 20 -15 47 -16 60 0 13 -7 26 -15 29 -10 3
-12 0 -8 -12 4 -9 3 -16 -1 -16 -16 0 -30 -51 -22 -79 5 -19 4 -33 -3 -40 -6
-6 -7 -11 -1 -11 5 0 10 -16 11 -35 2 -20 -2 -35 -8 -35 -6 0 -9 7 -6 15 12
30 -9 21 -24 -11 -10 -21 -12 -34 -6 -34 7 0 7 -4 -1 -12 -21 -21 -27 2 -8 32
9 17 15 31 12 31 -3 1 -10 3 -16 4 -5 1 -13 3 -16 4 -4 0 1 12 10 26 15 23 15
25 0 25 -15 0 -15 2 2 21 14 15 15 20 4 17 -17 -3 -28 61 -12 71 18 12 62 84
62 102 0 11 5 19 10 19 6 0 10 5 10 11 0 8 -4 8 -13 0 -11 -8 -21 -2 -45 25
-29 33 -60 42 -55 16 2 -8 -8 -9 -27 -5 -31 6 -43 -10 -15 -21 8 -3 15 -16 14
-28 0 -15 -3 -18 -6 -8 -9 22 -25 30 -53 24 -19 -4 -22 -3 -10 5 12 8 12 11
-3 17 -10 3 -20 4 -24 1 -8 -9 -33 19 -33 36 0 21 -47 49 -70 42 -11 -4 -23
-17 -26 -31 -8 -30 -20 -31 -27 -3 -11 40 5 54 61 52 25 -1 11 25 -18 31 -33
6 -40 22 -12 30 9 2 1 4 -18 3 -29 -2 -35 -6 -38 -27 -2 -20 -1 -22 7 -10 6 8
11 12 12 8 5 -27 4 -34 -4 -45 -5 -7 -14 -13 -19 -13 -6 0 -5 7 2 15 11 13 8
15 -17 15 -53 0 -70 43 -33 80 16 16 25 18 38 11 15 -9 15 -10 -4 -11 -12 0
-27 -7 -34 -15 -17 -21 3 -20 51 3 32 14 37 21 32 42 -3 14 -12 33 -21 42 -8
10 -12 26 -9 38 3 13 0 20 -9 20 -8 0 -14 -4 -14 -10 0 -5 -7 -10 -15 -10 -11
0 -14 7 -9 25 6 24 4 25 -32 24 -29 -1 -33 -3 -17 -7 17 -5 20 -11 13 -22 -9
-13 -11 -13 -19 -1 -6 9 -16 11 -27 6 -18 -7 -18 -7 1 -15 19 -7 19 -7 -3 -19
-16 -9 -32 -10 -50 -3 -35 12 -55 -7 -46 -43 4 -15 2 -25 -5 -25 -6 0 -11 9
-11 19 0 10 -7 22 -16 25 -8 3 -13 10 -10 15 3 5 -3 7 -14 4 -23 -6 -25 -14
-8 -31 9 -9 9 -12 -1 -12 -7 0 -9 -4 -6 -10 3 -5 0 -10 -8 -10 -20 0 -45 -30
-26 -31 8 -1 18 -1 23 0 5 1 6 -5 3 -13 -4 -9 2 -23 11 -32 16 -17 17 -17 20
0 2 10 -4 26 -14 37 -14 15 -14 21 -4 34 18 21 25 19 28 -10 3 -38 6 -49 17
-57 5 -4 3 -14 -7 -25 -15 -17 -18 -22 -18 -40 0 -3 -9 4 -20 17 l-20 23 -22
-23 c-16 -17 -23 -20 -26 -10 -3 7 3 19 13 26 17 12 15 16 -17 48 -36 36 -43
80 -18 111 8 10 9 15 2 15 -6 0 -14 -5 -17 -10 -4 -6 -11 -8 -16 -4 -5 3 -6
11 -2 17 4 7 6 20 5 30 -4 24 14 21 32 -4 11 -16 21 -20 41 -15 l25 6 -24 25
c-16 15 -23 31 -19 41 3 9 0 19 -7 24 -17 10 4 48 33 61 l22 10 -22 -5 c-12
-2 -24 1 -27 8 -3 7 -5 7 -5 -1 -1 -7 -8 -13 -16 -13 -17 0 -20 16 -5 25 6 4
8 11 4 16 -4 6 -11 6 -20 -2 -11 -9 -16 -6 -24 15 -9 25 -35 44 -46 34 -2 -3
16 -31 41 -62 25 -31 41 -56 34 -56 -6 0 -17 -7 -24 -16 -6 -9 -17 -15 -24
-13 -8 3 -5 12 9 27 11 12 18 23 15 23 -3 1 -9 3 -15 4 -5 1 -15 3 -21 4 -8 1
-8 5 1 16 10 11 9 18 -4 30 -9 9 -16 20 -16 25 0 10 -53 32 -71 30 -19 -3 -59
11 -59 20 0 13 -48 -1 -54 -16 -3 -8 -1 -14 4 -14 6 0 10 5 10 11 0 5 5 7 10
4 6 -4 8 -16 4 -27 -5 -17 -3 -19 15 -13 13 4 21 2 21 -5 0 -6 -4 -9 -9 -6 -5
4 -11 0 -14 -6 -3 -9 -12 -3 -26 15 -36 44 -52 58 -62 52 -5 -4 -9 1 -9 9 0 9
-4 16 -10 16 -5 0 -10 7 -10 15 0 25 -19 17 -26 -10 -6 -24 -8 -25 -25 -9 -10
9 -23 13 -28 9 -6 -3 -11 2 -11 11 0 14 -3 15 -12 6 -13 -13 -29 -16 -27 -4 1
4 0 18 -1 32 -2 20 -3 22 -7 6 -5 -20 -13 -30 -47 -56 -18 -14 -19 -13 -13 2
4 11 2 17 -5 15 -6 -1 -13 4 -16 12 -3 8 0 11 7 7 6 -4 11 -2 11 4 0 6 -10 10
-22 8 -15 -2 -22 -9 -20 -19 2 -17 -23 -29 -45 -22 -7 3 -2 14 13 30 13 14 24
31 24 37 0 6 -4 4 -10 -4 -5 -8 -11 -12 -13 -10 -2 3 -11 15 -19 28 -10 15
-18 19 -23 13 -3 -6 1 -14 9 -17 9 -3 16 -12 16 -20 0 -18 -9 -18 -32 3 -17
15 -18 15 -18 -2 0 -15 -3 -16 -12 -7 -18 18 -31 15 -24 -5 5 -16 4 -15 -9 1
-8 10 -16 24 -18 29 -2 6 -22 11 -44 11 -23 1 -45 4 -49 9 -13 13 -24 7 -17
-9 5 -14 1 -16 -25 -12 -18 2 -32 1 -32 -4 0 -18 -29 -7 -44 17 -20 30 -46 33
-46 5 0 -23 -18 -27 -26 -6 -3 8 -13 14 -22 14 -9 0 -26 3 -36 7 -16 7 -18 5
-13 -8 4 -11 1 -17 -9 -17 -8 0 -12 -4 -9 -10 8 -13 2 -13 -30 4 -14 8 -41 13
-58 12 -18 -2 -34 0 -37 4 -3 4 -29 4 -57 0 -32 -4 -57 -2 -63 4 -7 7 -10 6
-10 -1 0 -6 6 -13 13 -16 6 -2 8 -8 4 -13 -5 -5 -17 2 -28 16 -11 14 -17 18
-13 9 3 -10 1 -20 -5 -24 -6 -3 -11 -1 -11 4 0 6 -9 11 -19 11 -11 0 -22 4
-25 9 -3 5 -25 8 -49 6 -23 -2 -52 -4 -65 -4 -13 -1 -20 -5 -17 -11 3 -5 2
-10 -4 -10 -5 0 -17 -3 -26 -6 -10 -4 -15 -2 -13 6 2 7 -3 15 -10 17 -6 3 -12
0 -12 -5 0 -6 -17 -8 -40 -5 -24 4 -46 1 -54 -7 -9 -6 -20 -9 -26 -5 -5 3 -10
2 -10 -3 0 -5 -11 -12 -25 -14 -14 -3 -25 -1 -25 3 0 14 -20 11 -36 -6 -8 -8
-22 -11 -30 -8 -13 5 -15 1 -10 -15 4 -11 3 -23 -3 -26 -5 -3 -12 6 -16 21 -6
26 -7 26 -17 8 -11 -19 -11 -19 -19 0 -7 19 -8 19 -8 -1 -2 -36 -81 -56 -81
-20 0 6 -5 4 -10 -4 -6 -10 -10 -11 -10 -3 0 21 -76 10 -105 -15 -21 -18 -28
-20 -38 -10 -7 8 -13 18 -14 25 -3 14 -215 374 -219 371 -3 -3 102 -216 115
-233 4 -5 21 -41 37 -80 15 -38 32 -73 37 -76 16 -12 -4 -30 -25 -23 -17 5
-19 3 -13 -15 7 -24 -10 -29 -23 -5 -7 13 -13 13 -38 3 -16 -7 -42 -22 -58
-33 -16 -11 -45 -21 -63 -23 -28 -2 -37 3 -59 35 -19 27 -25 31 -21 15 3 -13
1 -23 -4 -23 -5 0 -4 -11 2 -24 10 -21 15 -23 46 -16 34 8 34 8 17 -11 -10
-11 -23 -18 -30 -15 -7 3 -22 -4 -35 -15 -12 -10 -27 -19 -34 -19 -7 0 -22 -9
-35 -20 -13 -11 -29 -20 -37 -20 -7 0 -13 -7 -13 -15 0 -10 -7 -15 -17 -13
-12 2 -18 -3 -17 -14 1 -14 -2 -15 -16 -8 -11 6 -25 10 -32 10 -7 -1 -2 -7 11
-14 l24 -13 -29 -6 c-17 -3 -32 0 -36 6 -4 6 -10 8 -15 4 -4 -5 -1 -12 6 -16
20 -13 4 -31 -29 -31 -21 0 -29 -6 -34 -25 -4 -14 -10 -25 -15 -25 -5 0 -17
-8 -27 -17 -11 -12 -19 -14 -21 -6 -2 6 -14 9 -26 7 -21 -4 -21 -4 1 6 13 5
20 14 17 20 -8 13 8 13 21 0 16 -16 46 11 34 30 -8 13 -10 12 -10 -3 0 -28
-21 -16 -60 36 -39 52 -51 56 -21 6 12 -19 21 -40 21 -46 0 -17 -32 -17 -49 0
-11 10 -12 8 -7 -10 6 -18 4 -20 -14 -16 -19 5 -19 4 -6 -35 11 -29 11 -40 3
-36 -15 5 -107 -77 -107 -95 0 -22 -25 16 -340 509 -167 261 -383 599 -479
750 -97 151 -190 296 -206 322 l-30 48 -102 0 c-57 0 -103 -4 -103 -8 0 -5 11
-19 25 -32 13 -12 23 -25 22 -29 -3 -11 29 -51 36 -45 4 4 13 1 22 -6 13 -11
15 -9 15 11 l1 24 22 -26 c47 -56 57 -70 57 -79 0 -6 7 -10 15 -10 8 0 24 -20
36 -45 12 -25 32 -54 45 -64 13 -10 24 -25 24 -32 0 -8 12 -25 25 -38 14 -13
25 -26 25 -30 0 -4 13 -6 30 -3 34 5 54 -22 29 -40 -11 -7 -11 -11 -1 -15 6
-2 10 -8 7 -13 -3 -4 2 -13 10 -20 8 -7 15 -18 15 -24 0 -7 11 -23 25 -36 14
-13 25 -28 25 -34 0 -22 102 -139 110 -126 5 8 15 -2 31 -27 13 -21 87 -135
164 -253 176 -267 245 -378 244 -387 -4 -25 3 -42 15 -37 7 3 16 -2 20 -11 3
-9 2 -13 -4 -10 -6 3 -10 -1 -10 -9 0 -8 4 -17 10 -21 5 -3 6 -13 3 -22 -5
-12 -3 -14 6 -8 10 6 11 2 6 -15 -5 -15 -4 -20 4 -16 7 5 10 -6 9 -33 -1 -24
-6 -41 -13 -41 -7 0 -17 -10 -24 -22 -6 -13 -9 -15 -7 -5 3 9 0 17 -5 17 -11
0 -9 -27 6 -65 22 -54 -63 71 -395 587 -140 218 -285 444 -323 502 -66 104
-68 106 -105 106 -36 0 -37 1 -36 36 1 20 5 39 11 42 6 4 -32 72 -86 158 -53
82 -110 174 -128 202 l-32 52 -106 0 c-82 0 -104 -3 -98 -12 32 -52 248 -355
260 -365 8 -6 14 -13 13 -15 -1 -1 2 -11 5 -20 11 -27 28 -21 23 7 -5 22 -2
25 21 24 14 0 20 -3 14 -6 -15 -6 -18 -93 -3 -93 5 0 9 -4 7 -8 -2 -8 162
-250 477 -707 206 -298 369 -545 363 -551 -3 -3 5 -29 18 -57 12 -29 26 -68
30 -87 7 -34 7 -34 -11 -19 -35 30 -48 34 -40 13 4 -12 4 -15 -2 -9 -26 29
-205 277 -412 575 -129 184 -339 486 -468 670 -128 184 -284 408 -345 497
l-112 162 -104 0 -103 1 15 -22 c27 -39 57 -88 52 -88 -2 0 -20 25 -40 55
l-37 55 -119 0 -120 0 44 -62 c24 -35 72 -103 107 -153 49 -69 482 -693 570
-822 50 -71 224 -319 230 -326 13 -14 5 67 -9 92 -26 46 -84 116 -95 113 -6
-2 -8 0 -4 3 10 11 2 24 -164 273 -82 123 -147 226 -145 228 2 2 20 -19 40
-48 20 -29 56 -80 80 -113 216 -299 550 -779 768 -1102 114 -170 127 -210 24
-72 -33 44 -73 97 -90 118 -16 21 -37 48 -45 60 -8 11 -21 21 -29 21 -11 0 -9
-6 7 -23 12 -13 22 -29 22 -36 0 -18 -18 1 -63 68 -20 29 -37 50 -37 46 0 -4
51 -84 113 -178 62 -95 123 -188 135 -209 26 -42 38 -48 99 -48 37 0 44 -3 41
-17 -2 -11 -14 -19 -30 -21 -26 -3 -26 -4 -21 -57 6 -53 5 -56 -34 -95 -39
-38 -44 -40 -101 -40 -50 0 -63 -3 -72 -19 -5 -11 -7 -22 -3 -24 5 -3 52 -8
105 -12 75 -5 104 -12 123 -27 56 -44 13 -138 -80 -174 -61 -23 -174 -16 -212
12 -39 29 -40 57 -4 103 27 33 29 40 16 51 -15 13 -17 82 -2 73 5 -3 17 3 27
12 19 17 19 18 -5 36 -48 39 -55 120 -13 166 l20 21 -179 259 c-176 254 -358
518 -706 1024 -97 142 -185 273 -197 293 l-20 37 22 9 c23 9 23 9 -3 9 -15 1
-38 15 -58 35 -18 19 -39 32 -46 30 -13 -6 -85 80 -85 100 1 6 19 -9 42 -34
58 -63 39 -34 -199 313 l-75 107 -1879 0 -1879 0 0 -3270z m13190 3229 c24
-11 52 -27 62 -36 9 -8 39 -27 65 -42 107 -58 112 -69 21 -44 -39 11 -58 22
-61 35 -5 19 -6 19 -26 -1 -23 -23 -37 -26 -46 -10 -4 5 -12 8 -18 6 -15 -5
-42 30 -51 66 -3 15 -11 27 -17 27 -6 0 -7 5 -4 10 9 14 24 12 75 -11z m-8874
-131 c41 -57 103 -145 190 -273 73 -107 210 -306 226 -328 13 -18 133 -194
312 -457 54 -80 114 -167 134 -193 19 -26 32 -50 29 -53 -2 -3 -14 10 -25 28
-12 18 -52 77 -89 130 -37 54 -178 258 -313 455 -135 196 -299 434 -364 528
-142 203 -150 215 -143 215 3 0 22 -24 43 -52z m-2525 -280 c17 -57 33 -107
36 -111 3 -5 -3 -7 -13 -5 -11 2 -22 17 -28 36 -8 29 -13 32 -48 32 -35 0 -39
-3 -45 -31 -5 -28 -27 -48 -39 -36 -3 2 5 36 17 73 38 119 50 144 70 144 14 0
25 -21 50 -102z m144 17 c14 -47 27 -85 29 -85 2 0 16 38 31 85 25 74 32 85
49 83 19 -3 21 -11 23 -83 1 -44 5 -92 7 -107 5 -23 2 -28 -14 -28 -18 0 -20
7 -20 76 0 45 -4 73 -10 69 -5 -3 -19 -37 -31 -75 -13 -39 -29 -70 -35 -70 -7
0 -25 39 -41 87 l-28 86 -5 -83 c-4 -59 -9 -85 -19 -88 -12 -4 -13 14 -8 104
4 60 7 110 7 112 0 1 9 2 19 2 16 0 25 -16 46 -85z m295 65 c23 -23 24 -33 10
-61 -8 -14 -7 -25 5 -41 36 -53 2 -98 -75 -98 l-50 0 0 103 c0 57 3 107 7 110
15 15 83 7 103 -13z m207 -15 c32 -37 32 -113 0 -151 -20 -23 -34 -28 -85 -32
l-62 -4 0 112 0 113 62 -6 c51 -5 67 -10 85 -32z m180 -70 c38 -113 38 -115
19 -115 -7 0 -17 15 -22 33 -9 29 -13 32 -49 32 -36 0 -40 -3 -49 -32 -6 -21
-15 -33 -27 -33 -15 0 -13 11 17 98 19 53 37 103 39 110 3 8 12 12 22 10 11
-2 27 -35 50 -103z m8470 91 c12 -11 14 -85 4 -105 -10 -19 -20 -21 -91 -21
-93 0 -106 12 -95 86 6 41 8 43 43 47 40 5 132 0 139 -7z m233 -412 c9 -127
20 -186 66 -357 29 -105 29 -112 7 -89 -16 16 -79 186 -83 222 0 8 -3 43 -5
77 -2 34 -6 66 -9 71 -13 22 -17 129 -5 169 6 24 14 42 16 39 2 -2 8 -62 13
-132z m-7053 -237 c374 -533 635 -909 728 -1049 50 -76 62 -88 87 -88 26 0 28
-2 28 -44 0 -27 7 -52 19 -67 27 -34 63 -101 57 -106 -2 -2 -20 17 -40 43
l-37 48 3 -105 c3 -99 4 -104 26 -107 12 -2 22 -8 22 -13 0 -5 -40 -9 -90 -9
-49 0 -90 2 -90 5 0 3 11 10 25 15 22 8 25 16 25 57 0 35 -7 59 -25 85 -14 20
-25 41 -25 45 0 4 10 -8 23 -27 l22 -35 3 64 c4 78 1 87 -32 93 -34 7 -59 -19
-45 -47 10 -18 9 -18 -8 1 -10 12 -30 29 -44 38 -26 17 -27 16 -48 -13 -18
-25 -21 -44 -21 -126 0 -104 9 -135 40 -135 11 0 20 -4 20 -10 0 -6 -39 -10
-96 -10 -61 0 -93 4 -89 10 3 6 13 10 21 10 23 0 34 44 34 134 0 117 -7 144
-36 148 -39 5 -29 20 28 39 69 25 78 24 78 -8 0 -25 0 -26 20 -8 11 10 20 22
20 26 0 9 -221 336 -495 734 -49 71 -66 102 -33 61 28 -36 244 -345 334 -478
36 -53 71 -102 79 -108 8 -7 15 -17 15 -23 0 -5 25 -47 56 -93 52 -77 59 -84
90 -84 22 0 38 -7 47 -20 18 -26 47 -16 47 15 0 13 -7 30 -15 39 -8 8 -15 19
-15 25 0 6 -3 11 -8 11 -4 0 -18 18 -32 40 -17 28 -28 36 -36 29 -8 -7 -13 -3
-18 15 -3 13 -14 26 -25 29 -14 3 -17 11 -14 31 5 22 2 25 -12 20 -14 -6 -16
-3 -10 16 5 15 4 20 -4 16 -6 -4 -11 0 -11 8 0 9 -5 16 -10 16 -6 0 -10 6 -8
13 5 24 -65 122 -87 122 -5 0 -10 12 -12 27 -2 24 -13 43 -53 88 -25 27 -56
74 -64 95 -6 16 -9 17 -17 5 -8 -12 -10 -9 -5 9 5 25 -21 71 -57 101 -10 8
-19 22 -21 30 -3 19 -51 99 -91 154 -29 39 -192 285 -210 315 -5 9 -4 12 3 7
6 -3 46 -57 89 -119z m129 1 c21 -29 62 -89 92 -133 30 -44 78 -111 107 -150
47 -65 289 -412 413 -592 31 -46 62 -80 75 -83 17 -5 22 -13 22 -40 0 -32 -3
-35 -32 -38 -41 -4 -62 27 -40 61 13 20 11 27 -29 82 -24 33 -65 92 -92 130
-26 39 -77 111 -113 160 -82 113 -144 203 -300 433 -68 101 -130 192 -138 203
-7 10 -11 19 -8 19 3 0 22 -24 43 -52z m7661 -290 c-4 -32 -13 -55 -22 -61
-10 -5 -14 -16 -10 -28 4 -11 1 -52 -6 -93 -10 -63 -16 -77 -40 -95 -16 -12
-29 -28 -29 -36 0 -8 -4 -15 -10 -15 -14 0 -12 32 4 55 14 22 33 96 40 160 6
58 17 98 31 115 6 8 15 23 18 33 4 9 12 17 18 17 8 0 10 -15 6 -52z m-3207
-230 c0 -6 -6 -8 -13 -5 -8 3 -14 -1 -14 -9 0 -8 8 -14 17 -14 22 0 44 25 35
40 -10 17 5 33 20 20 16 -13 11 -51 -7 -61 -44 -25 -52 -37 -39 -52 7 -9 10
-21 6 -27 -3 -5 -1 -10 5 -10 6 0 10 -8 8 -17 -2 -11 2 -17 10 -15 8 1 11 -2
8 -7 -4 -5 -2 -13 4 -16 8 -5 7 -11 -1 -21 -7 -9 -8 -14 -1 -14 6 0 14 9 17
20 8 24 28 26 45 5 11 -13 10 -14 -4 -9 -10 4 -16 1 -16 -9 0 -23 13 -27 33
-13 14 11 15 18 6 47 -7 19 -18 41 -25 49 -7 8 -13 20 -14 25 -1 6 -9 8 -18 7
-13 -3 -14 -1 -4 11 7 8 9 23 5 33 -6 17 -5 17 10 5 9 -7 17 -20 17 -28 0 -7
5 -19 10 -26 25 -30 60 -89 60 -102 0 -8 -8 -19 -17 -24 -16 -9 -15 -10 6 -11
19 0 21 -3 12 -14 -6 -7 -9 -20 -5 -29 3 -8 0 -18 -6 -22 -7 -4 -16 5 -23 24
-6 17 -17 31 -24 31 -14 0 -2 -42 19 -67 5 -7 8 -19 5 -28 -4 -8 -2 -17 4 -20
5 -4 7 -11 4 -16 -4 -5 1 -9 9 -9 9 0 16 5 16 10 0 6 -4 10 -10 10 -14 0 -12
39 3 54 22 22 47 27 47 9 0 -18 15 -8 15 10 1 7 6 11 13 9 24 -4 11 18 -13 24
-14 3 -25 10 -25 15 0 13 34 11 48 -3 9 -9 12 -9 12 0 0 7 -4 12 -9 12 -5 0
-13 9 -16 21 -5 15 -10 17 -19 10 -17 -15 -29 -1 -14 16 13 16 -7 63 -28 63
-17 0 -58 54 -45 58 6 2 11 12 11 22 0 13 5 17 20 13 11 -3 20 -10 20 -15 0
-5 5 -6 10 -3 8 5 8 11 0 20 -9 11 -7 12 9 8 12 -3 21 -10 21 -15 0 -5 9 -6
21 -3 14 5 20 3 18 -7 -4 -29 2 -38 26 -38 14 0 25 -4 25 -9 0 -13 -26 -32
-33 -24 -9 9 -8 -9 1 -24 12 -19 30 -1 36 37 7 40 -8 74 -23 52 -6 -11 -9 -9
-13 6 -4 15 -2 19 8 15 17 -6 18 9 2 26 -10 11 -10 13 0 7 6 -4 12 -3 12 1 0
5 -6 15 -12 22 -11 10 -8 10 12 3 14 -6 24 -14 23 -20 -1 -5 5 -9 14 -8 23 2
28 -51 7 -75 -16 -18 -15 -20 7 -38 13 -11 30 -20 37 -21 10 0 10 -5 2 -20
-13 -25 5 -28 18 -3 9 14 11 14 21 -5 9 -18 9 -22 -2 -22 -8 0 -14 -7 -14 -15
0 -8 6 -15 14 -15 7 0 19 -16 27 -35 19 -45 25 -44 21 3 -8 103 -37 159 -76
147 -26 -9 -24 4 3 14 27 10 75 -13 83 -39 4 -11 11 -20 16 -20 12 0 11 10 -6
40 -25 43 -18 61 15 40 13 -9 13 -11 0 -20 -12 -7 -12 -12 -2 -22 6 -6 12 -21
13 -33 0 -11 3 -14 6 -7 7 17 23 5 23 -19 0 -12 -7 -19 -20 -19 -11 0 -20 -6
-20 -12 0 -9 -3 -8 -9 2 -6 8 -8 17 -5 21 2 4 -1 11 -7 15 -18 11 -3 -55 17
-77 10 -11 13 -25 9 -38 -4 -15 -2 -21 8 -21 23 0 26 10 11 45 -13 32 -12 35
5 45 27 14 31 13 24 -5 -3 -10 -1 -15 7 -13 7 2 15 -3 17 -10 3 -7 -1 -10 -10
-6 -9 3 -16 -3 -20 -15 -3 -12 -1 -21 5 -21 5 0 6 -5 2 -11 -3 -6 0 -16 7 -21
11 -8 10 -9 -3 -5 -20 7 -34 -23 -16 -34 9 -6 9 -11 -1 -23 -17 -20 -6 -36 19
-29 11 3 17 9 15 14 -3 4 -12 6 -20 3 -13 -5 -13 -3 0 22 29 56 66 35 67 -38
0 -68 -2 -78 -18 -78 -9 0 -14 6 -11 13 5 15 -10 47 -23 47 -6 0 -10 -9 -10
-20 0 -11 5 -20 11 -20 5 0 7 -5 3 -12 -6 -9 -9 -9 -12 0 -2 7 -11 12 -19 12
-13 0 -13 3 -3 15 10 12 10 15 -4 15 -9 0 -16 6 -16 13 -1 20 -30 -25 -30 -46
0 -14 5 -17 17 -13 16 6 16 6 0 -12 -9 -10 -17 -27 -17 -38 1 -18 1 -18 11 -1
10 17 12 17 23 2 10 -14 12 -11 8 21 l-3 39 18 -22 c13 -17 22 -20 33 -13 19
13 30 12 30 0 0 -5 -7 -10 -15 -10 -8 0 -15 -5 -15 -11 0 -6 7 -9 15 -5 9 3
15 0 15 -10 0 -10 -6 -14 -15 -10 -13 5 -14 2 -5 -15 9 -15 8 -24 0 -35 -10
-11 -9 -15 4 -20 9 -3 16 -17 16 -30 0 -21 -4 -24 -40 -24 -38 0 -39 -1 -28
-20 10 -16 10 -24 0 -40 -7 -12 -12 -57 -12 -115 0 -77 3 -97 15 -102 9 -3 24
2 34 11 39 35 44 -2 5 -40 -20 -21 -33 -25 -65 -22 -37 3 -54 -5 -27 -14 7 -3
-6 -22 -32 -46 -48 -44 -36 -60 15 -21 22 18 29 19 35 8 5 -7 12 -10 16 -6 4
4 2 13 -4 19 -9 9 -8 16 5 30 21 23 29 23 36 -1 3 -14 1 -18 -9 -14 -8 3 -14
-1 -14 -11 0 -11 9 -16 33 -16 17 0 39 -5 47 -10 10 -6 11 -10 3 -10 -7 0 -13
-9 -13 -20 0 -11 -7 -20 -15 -20 -8 0 -18 0 -22 -1 -4 0 -9 4 -11 9 -2 6 6 8
17 5 17 -4 21 -1 21 18 0 17 -3 20 -11 12 -6 -6 -18 -9 -25 -6 -8 3 -14 0 -14
-6 0 -6 -5 -11 -11 -11 -5 0 -7 5 -4 10 3 6 -3 10 -14 10 -25 0 -28 -27 -4
-32 13 -2 10 -6 -10 -15 -16 -8 -27 -9 -27 -3 0 6 4 10 9 10 5 0 7 9 4 20 -10
38 -24 20 -18 -25 5 -49 4 -51 -27 -34 -18 10 -19 8 -13 -13 7 -21 7 -22 -11
-8 -10 8 -35 31 -55 51 -28 28 -33 38 -23 47 16 15 34 16 34 2 0 -5 -4 -10
-10 -10 -5 0 -10 -5 -10 -11 0 -5 4 -8 9 -5 5 3 12 -2 15 -11 6 -15 8 -15 16
-3 7 11 12 12 21 3 12 -12 39 -7 39 9 0 5 -9 7 -20 3 -15 -5 -21 0 -26 19 -3
14 -10 23 -15 20 -5 -3 -9 2 -9 10 0 9 5 16 10 16 6 0 10 5 10 12 0 6 -10 3
-22 -8 -21 -19 -21 -19 -16 4 4 12 2 20 -3 16 -5 -3 -9 4 -9 15 0 12 -5 21
-11 21 -7 0 -9 -11 -6 -28 6 -31 -6 -62 -17 -43 -4 6 -3 11 2 11 6 0 8 9 5 21
-4 13 -11 18 -20 14 -11 -3 -13 -1 -9 10 4 11 -1 15 -19 15 -18 0 -23 -4 -18
-16 6 -15 4 -15 -19 0 -25 16 -26 16 -24 -1 0 -10 -5 -17 -11 -16 -7 2 -13 -3
-13 -11 0 -8 -9 -18 -20 -21 -24 -8 -26 -28 -5 -49 8 -8 15 -19 15 -24 0 -6 7
-12 14 -15 16 -7 32 26 21 43 -9 14 13 40 33 40 14 0 14 -2 -1 -12 -13 -10
-15 -20 -8 -48 8 -35 8 -36 -26 -35 -35 2 -45 -14 -14 -22 19 -5 19 -5 0 -24
-10 -10 -24 -19 -30 -19 -6 0 -9 -6 -6 -12 2 -7 10 -12 16 -11 6 2 11 -2 11
-7 0 -14 16 -12 33 4 13 13 18 12 38 -10 23 -25 23 -26 5 -39 -23 -17 -42 -9
-25 11 8 10 9 18 2 25 -7 7 -12 3 -16 -14 -8 -30 -55 -54 -71 -36 -8 9 -7 10
6 6 19 -7 34 21 19 36 -12 12 -67 -9 -75 -29 -3 -8 -11 -14 -17 -14 -7 0 -21
-8 -32 -17 -19 -18 -19 -17 -13 13 6 26 4 32 -12 36 -19 5 -34 49 -23 66 3 4
14 11 24 15 10 4 16 12 12 19 -4 7 2 3 13 -9 11 -12 22 -19 26 -16 9 9 46 11
46 3 0 -3 -4 -10 -9 -15 -5 -6 -12 -20 -15 -31 -6 -19 -3 -21 19 -16 19 3 24
9 20 22 -3 10 -1 21 4 24 21 14 -2 36 -38 37 -32 0 -33 2 -15 11 15 7 20 17
17 36 -9 53 -13 59 -29 38 -18 -26 -18 -47 1 -40 8 4 15 2 15 -4 0 -11 -39
-23 -52 -16 -5 3 -5 11 -1 17 10 16 11 47 2 47 -4 0 -9 -7 -13 -15 -3 -8 -12
-15 -20 -15 -8 0 -16 -6 -19 -12 -3 -10 -9 -10 -26 0 -28 16 -47 6 -29 -16 11
-13 10 -15 -4 -9 -10 3 -18 2 -18 -3 0 -6 -5 -10 -11 -10 -6 0 -7 5 -2 13 19
30 8 53 -17 36 -13 -7 -13 -10 -1 -18 8 -5 9 -11 3 -15 -6 -3 -13 -2 -17 4 -4
6 -11 7 -17 4 -6 -4 -15 0 -20 7 -8 11 -9 10 -4 -3 3 -10 0 -18 -6 -18 -7 0
-6 -5 2 -15 7 -8 9 -15 6 -15 -14 0 -31 26 -34 51 -2 23 1 26 23 22 22 -5 24
-2 22 27 -2 30 -3 31 -36 25 -31 -6 -33 -5 -22 9 8 9 28 16 45 16 17 0 37 4
45 9 14 9 7 31 -10 31 -6 0 -7 -4 -4 -10 3 -6 -4 -10 -17 -11 -66 -2 -86 -17
-80 -60 3 -22 1 -30 -7 -25 -6 4 -14 0 -17 -8 -6 -17 -24 -22 -24 -8 0 5 9 18
21 30 16 18 18 25 7 35 -17 18 -48 29 -48 18 0 -5 5 -11 11 -13 8 -3 8 -10 -2
-26 -8 -12 -16 -22 -19 -22 -11 0 -31 43 -23 49 5 3 9 34 9 68 1 52 -1 61 -13
52 -21 -18 -15 2 8 27 20 21 20 24 5 39 -15 15 -16 15 -16 -8 0 -39 -39 -44
-53 -7 -3 8 -6 -6 -6 -32 -1 -43 18 -77 27 -50 2 7 7 12 12 12 11 0 20 -39 13
-56 -7 -19 -23 -18 -23 1 0 8 -7 15 -16 15 -8 0 -12 -4 -9 -10 3 -5 0 -10 -9
-10 -8 0 -16 -6 -19 -12 -2 -7 -8 -10 -12 -5 -5 4 0 14 11 22 18 14 18 14 -6
14 -15 0 -32 -10 -44 -25 -18 -25 -18 -26 3 -55 13 -17 16 -26 7 -23 -9 3 -16
-4 -20 -20 -3 -14 -11 -26 -16 -26 -13 0 -13 7 0 31 6 10 7 19 2 19 -5 0 -8
23 -7 50 3 58 -3 61 -69 42 -13 -3 -17 -1 -12 6 9 14 1 15 -22 3 -9 -4 -31
-11 -49 -14 -27 -5 -31 -4 -26 10 5 13 3 15 -13 8 -10 -4 -38 -11 -62 -15 -47
-8 -54 -4 -142 68 -29 25 -40 29 -40 18 0 -9 -4 -16 -10 -16 -5 0 -7 7 -4 15
11 27 -4 16 -19 -15 -9 -17 -11 -32 -6 -36 5 -3 9 3 9 13 0 15 2 15 10 3 5 -9
5 -19 -1 -27 -18 -21 1 -36 22 -17 11 9 22 14 26 11 3 -4 1 -7 -5 -7 -16 0
-15 -27 1 -33 6 -3 0 -6 -15 -6 -16 -1 -28 4 -28 9 0 6 -5 10 -11 10 -6 0 -8
-8 -5 -17 3 -10 -1 -27 -9 -37 -16 -21 -17 -21 -33 9 -11 20 -11 20 -12 -2 0
-12 5 -25 10 -28 12 -7 13 -25 2 -25 -4 0 -13 14 -20 32 -14 39 1 64 22 36 19
-25 27 -22 22 7 -3 13 0 27 5 30 14 9 11 22 -7 29 -12 5 -15 2 -10 -9 3 -9 2
-14 -3 -11 -5 3 -30 3 -55 0 -36 -5 -46 -11 -46 -25 0 -16 4 -17 25 -9 19 7
25 6 25 -4 0 -18 -35 -27 -49 -13 -6 6 -11 20 -11 30 0 13 -5 17 -15 13 -8 -3
-22 2 -31 11 -13 14 -17 14 -26 2 -8 -12 -9 -12 -5 1 2 8 -7 29 -20 45 -13 17
-27 35 -31 40 -15 18 -5 151 14 187 23 44 46 72 64 76 8 2 16 7 18 11 1 4 27
6 57 3 61 -5 61 -5 46 61 -5 20 -5 37 0 37 11 0 29 -68 22 -86 -3 -8 6 -23 22
-36 29 -23 55 -74 55 -108 0 -16 -7 -20 -29 -20 -25 0 -29 -4 -26 -20 2 -11
-2 -34 -9 -51 -11 -26 -14 -28 -20 -13 -4 9 -3 20 1 23 13 10 16 54 4 47 -6
-4 -11 -2 -11 3 0 6 -8 11 -19 11 -20 0 -30 -24 -32 -75 l-1 -30 -9 30 c-5 18
-5 33 1 39 24 24 11 38 -27 32 -21 -3 -44 -7 -50 -8 -15 -2 -15 -1 -6 -24 6
-16 7 -16 14 2 7 17 8 17 8 -3 1 -13 5 -23 10 -23 13 0 20 -37 9 -48 -13 -13
10 -29 53 -37 30 -6 37 -3 47 17 l13 23 -5 -23 c-4 -20 -2 -21 10 -11 9 7 22
25 30 41 8 15 21 28 30 28 8 0 13 4 10 9 -8 12 3 41 15 41 12 0 12 -37 0 -59
-7 -12 -5 -20 8 -28 16 -10 17 -6 13 46 -3 47 0 67 22 110 28 54 59 91 76 91
6 0 10 4 10 8 0 4 16 6 36 4 24 -3 39 0 45 9 5 8 9 9 9 3 0 -7 8 -14 19 -17
16 -4 19 2 20 59 1 34 -3 65 -8 68 -13 8 -42 -4 -35 -15 3 -5 0 -9 -5 -9 -6 0
-11 5 -11 10 0 15 38 50 55 50 8 0 15 5 15 10 0 6 16 10 35 10 25 0 37 -6 46
-21 8 -15 8 -19 0 -15 -7 5 -11 -4 -10 -26 0 -18 3 -27 6 -20 2 6 12 12 21 12
13 0 11 -4 -6 -16 -22 -15 -32 -52 -10 -38 8 5 9 2 3 -12 -11 -27 -19 -91 -10
-82 5 4 14 3 20 -2 16 -13 42 -4 42 15 0 8 -3 12 -7 10 -3 -2 -12 1 -20 6 -12
8 -12 12 -2 16 6 2 10 9 6 14 -3 5 0 9 5 9 6 0 11 -5 11 -10 0 -6 8 -10 18 -8
12 2 16 -3 14 -19 -3 -21 -1 -22 27 -12 17 6 31 14 31 18 0 4 13 6 29 3 28 -4
48 18 35 39 -3 5 4 9 15 9 28 0 28 -36 1 -43 -26 -7 -26 -24 0 -32 16 -5 17
-10 10 -30 -10 -27 -4 -55 12 -55 6 0 7 -7 4 -16 -4 -9 -2 -22 3 -28 5 -6 11
-20 14 -31 3 -11 4 -1 3 23 -1 23 -8 48 -14 54 -7 7 -12 19 -12 27 0 12 3 11
18 -2 17 -15 18 -13 20 35 3 70 13 80 26 25 5 -21 4 -27 -5 -21 -8 5 -9 3 -4
-6 6 -10 12 -9 24 6 9 11 31 26 49 33 18 8 37 21 42 30 8 14 9 14 10 -1 0 -10
5 -18 10 -18 6 0 9 3 8 8 -2 4 2 8 7 9 6 0 9 -3 8 -8 -2 -5 7 -9 20 -9 19 0
22 5 20 37 -1 21 -5 48 -9 61 -4 13 -2 22 5 22 13 0 -2 45 -15 45 -5 0 -18 6
-29 12 -19 11 -19 12 -1 19 11 4 22 2 28 -7 6 -9 7 1 3 31 -4 25 -17 55 -28
68 -21 22 -21 23 -2 16 17 -7 18 -6 7 8 -9 12 -10 18 -2 23 7 4 14 -2 17 -14
4 -15 13 -21 34 -21 16 0 29 -4 29 -9 0 -12 -29 -23 -41 -15 -5 3 -1 -10 10
-30 17 -30 18 -34 4 -29 -12 5 -14 3 -8 -6 4 -7 9 -48 11 -90 3 -42 8 -77 13
-79 4 -1 6 -13 4 -26 -8 -40 72 -134 95 -111 3 3 0 5 -7 5 -8 0 -11 7 -7 15 3
8 1 15 -4 15 -21 0 -9 20 20 35 17 9 35 27 40 40 10 27 30 34 30 10 0 -27 18
-16 22 14 4 24 1 29 -19 29 -13 0 -23 -5 -23 -10 0 -5 -4 -7 -10 -3 -6 4 -6
15 1 32 5 14 7 34 4 44 -4 13 -1 19 9 19 9 0 16 2 16 4 0 2 3 11 6 20 4 11 1
16 -10 16 -9 0 -16 -7 -16 -15 0 -25 -16 -17 -18 10 -1 17 3 25 14 25 11 0 6
9 -15 30 -17 18 -28 37 -24 45 4 11 0 14 -13 9 -14 -4 -16 -3 -5 4 14 10 48 5
57 -9 10 -16 24 -9 24 11 0 11 -4 20 -10 20 -5 0 -10 -5 -10 -12 0 -6 -11 -1
-25 12 -14 13 -25 32 -25 42 0 14 -6 18 -22 16 -24 -4 -25 -8 -13 -47 5 -17 4
-22 -6 -19 -8 3 -13 15 -11 27 1 15 -3 21 -10 19 -18 -6 -38 17 -38 42 0 17 5
21 20 17 11 -3 20 -1 20 4 0 5 5 9 11 9 6 0 9 -7 5 -15 -3 -8 -1 -15 4 -15 6
0 10 7 10 15 0 8 0 18 0 22 0 5 -12 9 -27 10 -21 2 -24 0 -13 -7 13 -8 13 -10
-2 -10 -24 0 -34 21 -14 32 9 5 14 14 11 19 -4 5 -11 6 -17 3 -7 -5 -9 -1 -5
9 3 9 1 18 -6 21 -7 2 -4 5 6 5 9 1 17 5 17 10 0 5 3 16 6 25 5 12 -1 16 -22
17 -16 0 -23 3 -16 6 6 2 12 10 12 18 0 7 7 18 16 26 9 7 13 21 10 33 -5 19
-4 19 15 -3 10 -13 19 -28 19 -33z m-230 -67 c0 -5 -6 -12 -12 -14 -9 -4 -10
-8 -3 -14 21 -17 46 -63 33 -63 -6 0 -1 -11 11 -24 17 -18 21 -31 16 -48 -7
-23 -7 -23 9 -3 13 18 15 18 16 3 0 -11 5 -15 15 -12 8 3 22 -2 31 -11 16 -16
15 -17 -14 -14 -22 3 -36 -2 -46 -16 -19 -25 -20 -36 -2 -29 9 3 15 -4 18 -20
4 -18 1 -26 -8 -26 -8 0 -14 4 -14 10 0 5 -8 3 -19 -6 -11 -10 -17 -25 -14
-38 3 -17 2 -16 -7 4 -9 20 -8 27 5 36 12 9 15 21 10 48 -7 36 -19 46 -28 24
-3 -7 -6 -4 -6 7 -1 11 -4 31 -7 45 l-5 25 13 -23 c8 -12 17 -20 20 -16 4 3 0
17 -8 29 -12 18 -13 29 -5 43 8 16 7 25 -7 42 -21 26 -78 35 -86 14 -3 -9 -1
-12 4 -9 15 9 12 -24 -2 -38 -7 -7 -24 -13 -38 -14 -24 -2 -24 -2 3 8 32 13
35 25 7 32 -21 5 -28 27 -9 27 7 0 20 9 30 21 10 11 22 18 28 15 5 -3 20 -2
33 3 30 13 38 13 38 2z m875 -32 c-6 -18 -4 -20 15 -14 19 6 22 4 18 -12 -3
-10 1 -25 9 -32 8 -7 12 -23 9 -34 -3 -14 3 -28 22 -44 15 -13 21 -23 15 -23
-7 0 -13 -4 -13 -10 0 -5 6 -10 12 -10 19 0 77 -70 72 -85 -3 -7 -1 -16 5 -19
6 -4 4 -14 -7 -26 -21 -25 -69 -27 -75 -2 -3 9 -5 3 -6 -15 -1 -25 2 -31 14
-27 27 11 16 -5 -15 -21 -16 -8 -31 -15 -33 -15 -9 0 -2 35 8 43 6 4 4 11 -5
17 -8 5 -12 10 -8 10 6 0 -10 60 -28 105 -7 18 -6 17 16 -3 26 -24 40 -28 40
-11 0 8 5 8 15 -1 8 -7 15 -23 15 -36 0 -15 6 -24 16 -24 14 0 15 2 3 16 -12
15 -11 16 9 10 31 -10 28 8 -9 38 -31 27 -59 34 -59 16 0 -18 -19 -10 -25 10
-5 15 -12 19 -26 15 -11 -4 -19 -2 -19 4 0 6 14 11 31 11 20 0 29 4 26 13 -2
6 -14 11 -25 9 -24 -3 -25 0 -22 64 1 23 -3 45 -9 49 -17 10 -13 55 5 55 11 0
14 -6 9 -21z m182 1 c4 -16 8 -18 19 -9 11 9 14 8 14 -5 0 -9 -6 -16 -12 -17
-8 0 -7 -3 2 -6 8 -3 27 -18 41 -33 32 -33 53 -42 67 -28 7 7 14 3 22 -11 6
-12 15 -19 21 -16 5 4 9 1 9 -4 0 -16 -16 -13 -34 4 -12 12 -20 14 -36 5 -17
-9 -24 -6 -44 17 -13 15 -28 24 -33 20 -4 -5 0 -13 10 -18 22 -13 23 -44 1
-35 -14 6 -15 4 -4 -9 7 -9 16 -12 19 -6 3 5 22 11 41 13 26 2 35 -1 38 -14 3
-14 -3 -16 -33 -13 -24 4 -37 1 -41 -9 -3 -7 -16 -13 -30 -13 -19 0 -22 2 -14
12 8 10 3 13 -24 12 l-35 -1 25 -23 c15 -14 31 -20 42 -16 13 5 14 3 5 -7 -6
-7 -9 -19 -6 -26 3 -8 0 -14 -6 -14 -6 0 -11 4 -11 10 0 5 -16 24 -35 41 -19
18 -35 37 -35 43 0 6 -9 29 -21 50 -11 21 -18 45 -15 52 3 8 1 14 -4 14 -6 0
-10 7 -10 15 0 33 17 12 34 -40 10 -33 23 -55 32 -55 7 0 14 -4 14 -9 0 -16
28 -20 34 -4 5 11 2 14 -9 9 -10 -3 -18 1 -21 12 -3 9 -11 29 -19 44 -12 23
-11 29 3 40 12 10 14 10 8 1 -4 -7 -3 -13 3 -13 6 0 8 12 5 30 -7 34 14 43 23
10z m2702 -284 c7 -8 11 -23 9 -33 -3 -16 4 -18 60 -17 34 0 62 0 62 -2 0 -2
-22 -13 -50 -26 -27 -13 -50 -26 -50 -30 0 -5 -9 -17 -20 -28 l-20 -20 29 0
c16 0 36 6 43 13 19 19 105 77 114 77 4 0 22 12 38 28 24 21 26 22 11 3 -11
-13 -71 -59 -133 -103 -62 -44 -126 -97 -142 -118 -17 -21 -52 -51 -78 -65
-26 -15 -62 -41 -79 -58 -32 -30 -48 -24 -18 7 8 8 15 20 15 27 0 7 -6 4 -14
-7 -8 -10 -18 -16 -22 -12 -4 4 -1 14 6 23 7 8 10 24 7 35 -3 11 -1 20 5 20 5
0 6 5 3 10 -3 6 -15 10 -27 10 -11 0 -22 8 -25 20 -3 11 -10 20 -15 20 -5 0
-8 6 -7 13 4 22 -13 47 -31 47 -20 0 -36 33 -25 50 3 5 17 10 31 10 13 0 52
13 86 30 46 21 66 26 75 18 7 -6 22 -8 33 -5 21 5 28 -7 10 -18 -15 -9 -12
-22 5 -29 11 -4 15 0 13 11 -2 11 5 19 17 21 34 7 42 22 11 22 -24 0 -26 3
-20 23 9 32 14 34 28 14 7 -9 20 -17 28 -17 19 0 31 37 14 44 -8 3 -8 5 0 5 6
1 17 -5 23 -13z m-8467 -179 l-1 -118 35 30 c25 22 45 31 70 31 82 0 104 -42
104 -199 0 -123 4 -141 31 -141 10 0 19 -4 19 -10 0 -6 -37 -10 -90 -10 -49 0
-90 4 -90 9 0 5 10 11 23 13 21 3 22 7 25 132 2 86 -1 133 -9 142 -17 20 -56
17 -90 -6 -28 -20 -28 -23 -28 -108 1 -119 9 -156 37 -160 12 -2 22 -8 22 -13
0 -5 -40 -9 -90 -9 -49 0 -90 4 -90 9 0 5 10 11 23 13 l22 3 0 230 c0 223 -1
230 -20 231 -40 2 -39 6 10 29 86 41 89 39 87 -98z m1778 16 c-2 -60 -2 -112
-1 -116 0 -4 16 3 34 17 53 41 121 33 149 -17 7 -13 15 -78 18 -157 5 -131 6
-135 28 -138 12 -2 22 -8 22 -13 0 -5 -40 -9 -90 -9 -53 0 -90 4 -90 10 0 6 8
10 19 10 10 0 23 6 29 13 15 18 15 217 -1 247 -16 32 -63 37 -97 11 -24 -19
-24 -23 -22 -136 1 -64 4 -120 7 -126 4 -5 15 -9 26 -9 10 0 19 -4 19 -10 0
-6 -37 -10 -90 -10 -49 0 -90 4 -90 9 0 5 10 11 23 13 l22 3 0 230 0 230 -22
-2 c-13 -2 -23 2 -23 8 0 13 77 47 109 48 23 1 23 1 21 -106z m-1990 -28 l0
-55 40 0 c29 0 40 -4 40 -15 0 -11 -11 -15 -40 -15 l-41 0 3 -137 c3 -131 4
-138 24 -141 11 -2 27 4 34 13 7 8 16 15 21 15 17 0 9 -22 -20 -51 -36 -36
-88 -40 -116 -9 -17 18 -19 39 -19 165 l1 145 -29 0 c-36 0 -36 10 1 35 17 10
42 39 57 62 15 24 31 43 35 43 5 0 9 -25 9 -55z m2370 0 l0 -55 40 0 c29 0 40
-4 40 -15 0 -11 -11 -15 -40 -15 l-41 0 3 -137 c3 -135 4 -138 26 -141 13 -2
25 3 28 12 6 17 34 22 34 7 0 -5 -13 -23 -29 -40 -35 -37 -87 -43 -116 -11
-15 17 -17 38 -16 165 l1 145 -30 0 c-16 0 -30 2 -30 5 0 3 17 21 39 40 21 19
44 49 51 65 21 50 40 38 40 -25z m1374 -14 c3 -5 14 -8 24 -6 9 1 11 0 5 -2
-7 -3 -13 -14 -13 -25 0 -17 4 -19 23 -13 76 24 122 10 106 -33 -11 -30 -35
-38 -65 -21 -21 11 -27 10 -41 -4 -13 -13 -18 -41 -21 -127 -3 -117 3 -140 39
-140 11 0 19 -4 19 -10 0 -5 -43 -11 -97 -12 l-97 -3 -9 -35 c-19 -75 -95
-120 -203 -120 -53 0 -78 6 -109 23 -52 29 -55 55 -14 101 29 34 30 38 15 55
-22 25 -20 35 15 76 28 32 27 41 -3 36 -5 0 -8 8 -8 18 0 11 -4 23 -10 26 -5
3 -10 28 -10 54 0 76 56 131 135 131 21 0 35 5 36 13 0 9 2 9 5 0 3 -7 12 -9
21 -6 12 5 14 3 8 -7 -6 -10 -4 -12 8 -7 10 3 17 2 17 -4 0 -7 19 -10 50 -7
37 2 50 0 50 -11 0 -9 6 -11 18 -6 9 5 40 16 67 26 37 13 46 19 33 24 -10 4
-18 11 -18 16 0 12 17 12 24 0z m-950 -188 c2 -159 6 -183 31 -183 8 0 17 -4
20 -10 4 -6 -27 -10 -84 -10 -54 0 -91 4 -91 10 0 6 9 10 19 10 27 0 31 18 31
149 0 116 -8 145 -35 135 -7 -3 -16 -1 -19 4 -5 9 114 64 122 57 2 -2 5 -75 6
-162z m-2048 125 c34 -32 62 -102 44 -113 -5 -3 -42 -5 -82 -4 -144 3 -148 2
-148 -26 0 -39 35 -99 65 -113 14 -7 41 -12 60 -12 33 0 49 13 81 66 7 11 15
16 19 12 15 -14 -8 -71 -44 -109 -34 -35 -43 -39 -88 -39 -88 0 -150 59 -160
152 -13 132 52 218 164 218 46 0 58 -4 89 -32z m2244 7 l0 -26 37 26 c37 24
96 33 119 17 35 -25 44 -57 44 -169 0 -117 10 -163 34 -163 8 0 18 -4 21 -10
4 -6 -28 -10 -90 -10 -62 0 -94 4 -90 10 3 6 14 10 25 10 26 0 30 19 30 133 0
148 -24 181 -95 137 l-36 -22 3 -121 c3 -113 4 -122 23 -125 11 -2 24 -8 30
-13 5 -5 -30 -9 -88 -9 -53 0 -97 4 -97 9 0 5 10 11 23 13 21 3 22 6 25 141
l3 137 -26 0 c-38 0 -30 17 18 39 61 28 87 27 87 -4z m3020 -37 c0 -62 -14
-76 -31 -31 -16 43 -39 63 -74 63 -36 0 -55 -15 -55 -45 0 -28 20 -45 97 -84
79 -39 101 -75 84 -133 -18 -58 -59 -81 -136 -73 -33 3 -70 5 -82 5 -21 0 -23
5 -23 60 0 45 4 60 14 60 8 0 17 -12 20 -26 15 -59 98 -98 134 -62 33 33 7 72
-81 122 -75 43 -90 63 -84 116 4 32 12 51 32 67 23 21 36 23 106 21 l79 -2 0
-58z m3063 -256 c9 -8 25 -10 41 -6 14 3 34 3 43 -1 10 -4 32 -7 50 -6 34 3
73 -27 73 -55 0 -12 3 -14 13 -6 20 17 91 9 95 -10 2 -9 -6 -18 -20 -22 -37
-10 -88 -7 -88 5 0 8 -5 8 -15 -1 -8 -7 -13 -15 -11 -19 3 -4 -16 -13 -42 -20
-26 -8 -53 -18 -60 -24 -7 -6 -75 -9 -160 -9 -168 2 -202 4 -220 16 -7 4 -19
3 -27 -4 -11 -9 -16 -7 -24 8 -6 11 -7 23 -3 27 13 13 74 35 82 30 5 -3 33 6
64 20 30 14 61 25 69 25 21 0 68 26 60 33 -11 12 16 33 40 32 13 0 31 -6 40
-13z m-3268 -228 c14 -9 25 -12 25 -8 0 5 5 2 11 -6 8 -11 12 -12 16 -2 2 6
16 12 30 12 15 0 23 -5 20 -12 -2 -7 -13 -12 -23 -10 -14 2 -16 1 -5 -6 9 -7
10 -12 2 -16 -6 -4 -9 -11 -6 -16 6 -9 -25 -23 -33 -15 -3 3 3 12 14 19 22 17
19 21 -21 30 -24 6 -28 5 -17 -5 18 -19 15 -31 -8 -24 -14 5 -20 2 -20 -10 0
-11 -6 -14 -25 -9 -19 5 -25 2 -25 -10 0 -9 -4 -16 -10 -16 -5 0 -10 -9 -10
-21 0 -25 -17 -59 -30 -59 -6 0 -10 7 -10 16 0 8 5 12 10 9 6 -3 10 0 10 8 0
25 -12 27 -38 7 -31 -25 -45 -25 -37 -1 6 21 -21 55 -36 46 -5 -4 -9 -15 -9
-25 0 -10 -4 -22 -10 -25 -6 -4 -7 1 -3 12 5 14 3 16 -7 6 -14 -13 -7 -43 10
-43 5 0 10 4 10 8 0 5 6 16 13 26 12 16 13 14 9 -18 -2 -20 -9 -36 -16 -35
-28 3 -36 -3 -36 -29 0 -15 5 -33 12 -40 7 -7 8 -12 3 -12 -6 0 -10 -24 -11
-53 -1 -28 1 -42 3 -29 3 12 9 22 14 22 14 0 11 -40 -3 -45 -15 -6 -20 -77 -6
-86 4 -3 3 -19 -2 -36 -6 -17 -10 -55 -8 -84 3 -54 3 -54 36 -54 23 0 31 -4
27 -13 -3 -8 -5 -23 -5 -34 0 -20 -1 -20 -19 -4 -18 17 -20 17 -38 -2 -29 -33
-40 -47 -46 -62 -4 -12 -6 -11 -6 2 -1 9 4 20 9 23 19 11 10 23 -17 23 -15 0
-29 5 -31 11 -2 6 -9 8 -15 4 -6 -4 -27 -10 -47 -13 -28 -5 -34 -10 -32 -25 3
-20 3 -20 -12 0 -9 12 -15 15 -16 7 0 -7 -5 -10 -11 -7 -6 4 -8 13 -5 21 3 8
2 14 -2 14 -4 0 -21 13 -38 28 -58 53 -67 175 -18 248 13 19 24 46 24 59 0 14
5 25 10 25 6 0 10 -4 10 -9 0 -5 9 -7 20 -4 11 3 20 12 20 19 0 8 10 14 23 14
16 0 18 -3 8 -9 -9 -6 3 -10 38 -12 l51 -4 0 37 c0 20 -6 39 -12 41 -10 4 -10
8 1 15 22 16 6 45 -20 37 -18 -6 -21 -4 -16 9 6 15 2 16 -67 7 -4 0 -6 -9 -4
-19 4 -15 1 -18 -19 -14 -19 3 -21 7 -12 18 9 11 9 14 0 14 -6 0 -14 -6 -17
-14 -3 -8 -14 -13 -25 -11 -24 5 -58 24 -42 25 8 0 10 7 6 18 -6 15 -4 15 15
-2 12 -10 19 -24 16 -30 -3 -6 1 -3 9 7 8 10 31 19 52 21 20 2 41 8 48 15 14
14 30 15 22 1 -3 -5 -1 -10 4 -10 6 0 11 8 12 18 0 13 3 11 10 -6 10 -26 33
-20 24 7 -3 12 1 17 15 18 11 1 22 -2 25 -8 10 -15 35 -10 35 6 0 8 5 15 10
15 6 0 15 12 20 26 6 16 16 24 24 21 7 -3 18 -1 23 4 7 7 12 0 16 -20 5 -22
12 -31 27 -31 19 0 27 14 13 23 -5 2 -3 2 4 1 6 -2 13 7 15 19 2 17 9 22 30
21 15 -1 25 3 21 8 -3 6 3 7 17 3 15 -5 20 -4 16 4 -5 7 -1 9 8 5 24 -9 33 26
11 42 -26 20 -9 17 20 -2z m1572 -60 c9 -23 -26 -128 -65 -194 -31 -51 -40
-60 -73 -65 -21 -4 -55 -5 -76 -4 -21 1 -49 -1 -62 -5 -23 -8 -91 19 -91 37 0
4 -4 6 -9 2 -5 -3 -15 1 -23 8 -7 7 -22 12 -33 12 -31 -1 -93 33 -111 60 -9
14 -15 28 -12 30 9 10 73 -16 122 -49 28 -19 72 -41 97 -47 41 -11 50 -10 92
11 36 18 47 29 47 47 0 13 13 36 28 51 16 15 43 46 61 70 20 25 39 41 47 38 7
-3 16 -1 19 4 10 15 35 12 42 -6z m-2227 -44 c-12 -8 -10 -10 10 -10 l25 -1
-25 -11 c-14 -6 -29 -11 -35 -12 -22 -2 -14 -20 14 -32 27 -12 31 -11 31 3 0
14 3 14 12 5 10 -10 10 -15 -2 -23 -8 -5 -23 -7 -32 -5 -25 6 -22 -7 8 -38
l27 -26 -31 11 c-17 6 -36 17 -43 25 -6 8 -21 14 -32 14 -11 0 -32 13 -46 29
-25 28 -28 29 -73 19 -32 -8 -45 -15 -41 -24 3 -8 -1 -14 -11 -14 -10 0 -13
-5 -9 -17 4 -11 3 -14 -5 -9 -7 4 -12 14 -12 22 0 8 -4 14 -10 14 -5 0 -10 9
-10 21 0 18 4 20 25 15 14 -4 25 -2 25 2 0 5 11 7 24 5 13 -3 34 1 47 7 19 10
24 10 34 -4 7 -8 15 -13 18 -10 3 4 13 -1 22 -10 18 -18 35 -21 35 -6 0 6 -5
10 -11 10 -6 0 -9 7 -5 15 3 8 1 15 -4 15 -6 0 -10 4 -10 9 0 6 19 12 43 14
23 2 47 4 52 5 6 1 3 -3 -5 -8z m-704 -36 c-5 -14 -1 -16 26 -11 18 3 27 3 20
0 -8 -3 -4 -11 13 -25 32 -25 30 -62 -3 -66 -13 -2 -29 2 -37 8 -11 9 -12 7
-8 -9 3 -12 1 -21 -3 -21 -5 0 -10 11 -10 25 -3 47 -47 73 -72 43 -15 -19 -20
-149 -4 -147 34 6 72 -3 72 -16 0 -11 -11 -15 -40 -15 -39 0 -40 -1 -40 -32 1
-31 1 -32 15 -14 15 19 15 19 15 -2 0 -13 -6 -22 -15 -22 -15 0 -16 -5 -18
-135 -2 -79 5 -95 42 -95 41 0 48 -17 8 -21 -56 -7 -204 6 -182 14 51 21 50
17 53 167 2 127 1 142 -13 130 -11 -9 -15 -9 -15 -1 0 7 -8 11 -17 9 -10 -2
-19 4 -21 15 -3 14 4 17 32 17 34 0 36 1 36 35 0 20 6 50 13 68 8 18 12 38 9
46 -3 10 0 12 11 8 9 -3 21 1 28 9 6 8 29 17 50 20 21 4 40 13 43 20 3 8 8 14
12 14 3 0 3 -7 0 -16z m-3802 -35 c34 -27 32 -63 -4 -67 -18 -2 -34 6 -55 28
-54 56 -81 37 -91 -63 l-7 -67 47 0 c34 0 46 -4 46 -15 0 -11 -12 -15 -45 -15
l-44 0 4 -130 c5 -160 7 -170 46 -170 16 0 29 -4 29 -10 0 -6 -44 -10 -111
-10 -71 0 -108 4 -104 10 3 6 14 10 24 10 36 0 41 20 41 161 l0 138 -32 3
c-45 4 -49 28 -5 28 33 0 34 2 40 45 9 61 31 102 70 125 44 27 116 27 151 -1z
m1116 -100 l0 -121 35 31 c27 23 45 31 73 31 75 -1 92 -35 92 -185 0 -117 9
-155 35 -155 8 0 15 -4 15 -10 0 -6 -35 -10 -85 -10 -47 0 -85 4 -85 9 0 5 10
11 23 13 21 3 22 7 25 126 1 73 -2 130 -8 142 -14 27 -60 26 -94 -1 -27 -21
-27 -21 -24 -142 3 -118 4 -122 26 -125 12 -2 22 -8 22 -13 0 -5 -41 -9 -92
-9 -91 0 -98 3 -56 24 23 11 23 15 26 216 3 231 0 255 -28 247 -41 -10 -28 11
18 31 83 37 82 39 82 -99z m1772 6 l3 -116 34 26 c34 24 81 32 116 19 33 -13
48 -64 47 -159 -2 -132 5 -164 36 -178 26 -11 25 -12 -20 -15 -26 -2 -71 -2
-100 0 -50 3 -50 8 -3 23 12 3 15 26 15 119 0 138 -8 166 -48 166 -16 0 -41
-9 -56 -21 -25 -20 -26 -24 -26 -129 0 -121 4 -140 30 -140 11 0 22 -4 25 -10
4 -6 -29 -10 -91 -10 -97 0 -105 3 -62 24 23 11 23 15 26 219 3 218 -2 249
-38 240 -11 -3 -20 0 -20 5 0 14 77 50 107 51 22 1 22 -2 25 -114z m-1982 -20
l0 -55 40 0 c29 0 40 -4 40 -15 0 -11 -11 -15 -40 -15 l-41 0 3 -137 c3 -124
5 -138 21 -141 10 -2 27 4 38 14 18 16 19 16 19 0 0 -30 -46 -66 -83 -66 -62
0 -72 23 -74 174 -1 72 -2 137 -2 144 -1 6 -12 12 -26 12 -14 0 -25 2 -25 5 0
3 17 21 39 40 21 19 44 49 51 65 21 50 40 38 40 -25z m2370 18 c-4 -73 -3 -73
40 -73 29 0 40 -4 40 -15 0 -11 -11 -15 -42 -15 l-43 0 1 -78 c1 -42 2 -103 3
-135 1 -64 18 -82 50 -53 38 35 44 3 6 -38 -17 -18 -34 -26 -57 -26 -68 0 -78
26 -78 194 l0 136 -25 0 c-33 0 -32 14 5 40 17 12 39 39 50 61 27 52 52 52 50
2z m2952 -67 c5 -105 7 -99 -41 -103 -25 -3 -53 -9 -62 -14 -10 -5 -31 -9 -47
-9 -22 0 -29 4 -28 17 0 10 -9 22 -22 28 -18 8 -22 17 -20 40 2 22 8 29 20 27
9 -1 19 6 23 17 4 15 18 22 53 26 26 4 51 8 56 9 5 1 22 0 38 -2 23 -4 28 -9
30 -36z m-6017 -10 c68 -29 108 -130 85 -216 -24 -91 -83 -140 -168 -140 -61
0 -108 29 -140 88 -69 125 12 282 146 282 23 0 58 -6 77 -14z m245 -12 l0 -27
26 27 c33 32 77 35 98 5 28 -41 -15 -74 -59 -45 -23 15 -25 14 -44 -11 -18
-22 -21 -40 -21 -132 0 -110 7 -131 42 -131 10 0 18 -4 18 -10 0 -6 -39 -10
-96 -10 -61 0 -93 4 -89 10 3 6 13 10 20 10 26 0 35 37 34 132 -2 128 -8 154
-38 150 -38 -6 -20 19 29 39 64 26 80 24 80 -7z m1178 6 c33 -21 66 -78 60
-108 -3 -13 -19 -15 -108 -14 -129 3 -138 -1 -121 -59 18 -60 60 -99 106 -99
47 0 71 13 90 50 20 38 40 40 30 3 -20 -84 -79 -128 -157 -121 -55 6 -101 40
-124 95 -26 61 -14 172 25 217 49 57 138 73 199 36z m402 -7 l0 -27 28 27 c33
32 68 34 97 7 l22 -20 44 20 c81 36 78 41 81 -142 3 -158 4 -163 26 -173 41
-18 23 -25 -63 -25 -50 0 -85 4 -85 10 0 6 9 10 19 10 27 0 31 18 31 150 0 82
-4 121 -12 126 -16 10 -58 12 -58 3 0 -17 -42 -20 -65 -5 -23 15 -25 14 -44
-11 -18 -22 -21 -40 -21 -132 0 -110 7 -131 42 -131 10 0 18 -4 18 -10 0 -6
-39 -10 -96 -10 -61 0 -93 4 -89 10 3 6 13 10 21 10 8 0 19 12 24 26 12 29 12
160 1 219 -6 34 -10 40 -30 37 -37 -4 -19 19 29 39 65 26 80 24 80 -8z m655
10 c33 -4 59 -11 58 -15 -2 -5 -3 -12 -3 -18 0 -5 -13 -10 -29 -10 -28 0 -28
-1 -18 -37 21 -83 -43 -153 -139 -153 -34 0 -56 -5 -64 -15 -21 -25 -1 -33 94
-40 49 -3 102 -13 117 -21 77 -39 29 -155 -76 -184 -63 -18 -168 -9 -202 16
-39 29 -40 57 -4 103 27 34 29 40 16 51 -23 19 -18 47 15 76 l29 27 -24 18
c-63 50 -52 151 22 201 29 20 66 20 208 1z m1385 6 c28 -8 85 -90 88 -128 2
-20 8 -38 13 -39 6 -3 6 -9 1 -15 -19 -24 -22 -65 -7 -71 16 -6 21 -36 6 -36
-5 0 -12 8 -16 18 -6 16 -7 16 -20 -1 -8 -11 -11 -25 -8 -33 3 -8 2 -14 -3
-12 -5 1 -29 -8 -53 -21 -60 -31 -148 -27 -187 10 -96 87 -80 261 29 322 30
17 111 20 157 6z m379 -4 c63 -32 105 -112 98 -186 -2 -19 1 -40 6 -47 5 -7 6
-16 2 -20 -4 -4 -10 -1 -13 7 -3 8 -13 -1 -26 -25 -32 -58 -78 -84 -145 -84
-31 0 -69 7 -85 15 -15 8 -35 15 -42 15 -8 0 -14 5 -14 11 0 5 5 7 12 3 6 -4
1 9 -11 30 -22 35 -45 156 -30 156 10 0 18 39 9 45 -11 7 8 65 21 65 5 0 9 -6
9 -12 0 -8 3 -9 8 -3 31 42 145 59 201 30z m2102 -354 c-11 -7 -10 -11 7 -20
11 -6 32 -11 45 -11 36 0 81 -97 74 -158 -7 -65 -16 -69 -89 -41 -71 26 -162
107 -174 154 -12 47 36 76 136 84 12 1 13 -1 1 -8z m685 -459 c22 -11 94 -74
160 -139 122 -121 168 -158 194 -158 8 0 16 -10 18 -22 4 -28 4 -28 -50 -4
-69 31 -80 40 -331 280 -38 36 -73 74 -79 85 -10 18 -9 18 18 -1 16 -11 47
-30 70 -41z m-4855 -78 c26 -27 30 -37 21 -46 -9 -9 -3 -22 30 -55 49 -50 69
-57 37 -12 -20 28 -20 32 -5 47 15 15 19 13 58 -25 l42 -42 -24 -26 c-32 -34
-20 -42 17 -11 29 24 31 25 205 23 155 -2 178 0 195 15 19 17 20 17 40 -5 11
-12 18 -29 15 -37 -2 -8 11 0 31 18 19 19 36 29 38 23 3 -7 47 -14 109 -17 58
-3 107 -8 110 -11 3 -2 -50 -3 -118 -2 -114 2 -124 1 -145 -19 -13 -12 -27
-19 -31 -15 -4 4 -15 8 -24 8 -9 0 -17 7 -17 15 0 8 8 14 18 14 14 -2 15 1 6
12 -10 13 -14 12 -29 -1 -14 -12 -49 -15 -196 -15 l-180 0 -29 -30 c-22 -23
-31 -27 -42 -18 -10 8 -19 6 -37 -11 -12 -12 -29 -19 -37 -16 -9 3 -34 -15
-64 -45 -27 -27 -56 -50 -65 -50 -9 0 -40 25 -70 55 -37 38 -57 51 -65 45 -8
-7 -18 -4 -30 10 -11 13 -25 18 -39 14 -15 -3 -29 3 -46 20 l-23 26 -180 0
c-150 0 -183 3 -198 16 -14 12 -18 13 -25 2 -4 -7 -4 -10 1 -6 4 4 14 0 21
-10 16 -22 -1 -48 -21 -32 -9 8 -15 8 -20 0 -5 -8 -15 -4 -31 11 -22 21 -31
22 -146 20 -68 -1 -120 0 -117 3 3 3 43 6 89 7 46 1 97 5 114 10 26 7 35 5 60
-19 16 -15 27 -20 24 -12 -3 9 3 26 13 39 18 22 20 23 38 7 16 -15 43 -17 197
-17 l178 1 28 -27 c35 -33 50 -22 18 12 l-24 26 42 42 c39 39 43 41 59 24 16
-16 16 -18 -7 -42 -42 -44 -11 -40 35 5 35 34 42 47 33 57 -9 11 -4 21 21 47
45 47 97 47 142 0z"/>
<path d="M2320 6075 l0 -85 30 0 c46 0 80 39 80 90 0 51 -27 80 -75 80 l-35 0
0 -85z"/>
<path d="M9090 4851 c0 -25 31 -91 42 -91 4 0 8 -4 8 -10 0 -5 -6 -10 -14 -10
-8 0 -17 -7 -20 -16 -3 -9 -11 -12 -18 -8 -7 5 -9 2 -6 -7 3 -8 0 -23 -8 -34
-13 -18 -14 -18 -14 0 0 24 -6 17 -14 -19 -6 -25 -5 -28 13 -23 12 3 24 1 27
-4 3 -5 -2 -9 -11 -9 -12 0 -15 -6 -10 -20 4 -11 2 -20 -4 -20 -6 0 -11 6 -12
13 0 6 -5 1 -11 -13 -11 -25 -11 -25 -15 -2 -3 12 -9 22 -14 22 -7 0 -8 -13
-4 -32 10 -44 13 -46 31 -19 21 29 38 22 40 -17 2 -34 -9 -48 -41 -54 -30 -5
-45 -36 -33 -69 6 -19 6 -34 -2 -49 -11 -21 -11 -21 13 -5 22 14 48 63 27 50
-9 -6 -20 19 -20 43 1 16 2 15 14 0 16 -22 56 -24 56 -3 0 22 37 18 43 -5 6
-24 -13 -42 -33 -30 -22 14 -30 12 -30 -6 0 -13 8 -15 40 -12 22 2 40 0 40 -4
0 -5 4 -8 10 -8 15 0 7 43 -10 57 -8 6 -12 15 -8 19 16 15 39 -20 37 -55 -2
-31 9 -88 26 -139 3 -7 10 -10 16 -6 8 5 8 9 -1 14 -8 5 -2 10 15 14 35 9 43
1 22 -22 -10 -10 -17 -25 -17 -33 0 -8 -9 -21 -20 -29 -11 -8 -20 -25 -19 -40
l0 -25 11 23 c6 12 19 22 30 22 10 0 18 5 18 11 0 23 20 -4 21 -29 0 -15 5
-36 10 -47 10 -22 7 16 -7 109 -5 38 -4 47 5 41 9 -5 9 1 -1 21 -8 16 -13 37
-11 47 6 24 -14 21 -22 -4 -6 -17 -9 -18 -23 -7 -13 11 -15 10 -10 -10 4 -12
2 -20 -3 -16 -5 3 -9 13 -9 23 0 10 -3 21 -7 25 -13 13 -10 44 4 39 8 -3 12
-11 9 -18 -13 -35 22 -15 86 49 24 24 28 36 26 73 -1 28 -8 47 -17 53 -14 8
-14 11 3 23 19 14 19 15 -2 26 -12 6 -22 18 -22 26 0 7 -5 15 -12 17 -7 3 -8
9 -2 20 8 13 12 12 34 -10 14 -13 19 -22 13 -18 -8 4 -13 1 -13 -8 0 -24 38
-19 45 5 8 25 -2 69 -16 69 -6 0 -6 -7 1 -21 13 -23 4 -41 -9 -20 -5 7 -12 12
-17 11 -4 -1 -11 6 -14 15 -3 9 -10 16 -15 15 -6 0 -11 8 -13 20 -4 22 13 28
21 8 3 -7 6 -8 6 -3 0 6 -8 21 -19 35 -11 14 -18 18 -14 9 11 -32 -15 -29 -32
3 -16 30 -71 87 -85 88 -3 0 -4 -14 -1 -30 3 -24 8 -29 22 -25 13 4 21 -4 34
-35 9 -22 19 -40 24 -40 4 0 13 -13 19 -30 8 -22 8 -33 -2 -47 -7 -9 -11 -23
-8 -30 3 -7 1 -13 -5 -13 -6 0 -19 -3 -29 -7 -17 -7 -17 -6 1 21 10 16 13 25
7 22 -6 -4 -11 -2 -11 3 0 6 -5 11 -11 11 -6 0 -8 -7 -5 -16 4 -9 1 -22 -4
-30 -9 -9 -6 -18 9 -33 26 -26 31 -26 31 -2 0 23 25 35 38 18 11 -14 12 -47 1
-47 -4 0 -10 10 -12 23 l-4 22 -2 -22 c0 -13 -5 -23 -11 -23 -5 0 -7 -7 -4
-15 4 -9 0 -15 -10 -15 -19 0 -22 -46 -3 -53 6 -2 0 -4 -15 -4 -22 0 -26 3
-22 21 3 11 7 31 10 43 4 23 -19 53 -42 53 -8 0 -14 5 -14 10 0 6 4 10 10 10
5 0 -2 11 -16 25 -18 18 -23 31 -19 46 5 16 4 19 -5 14 -9 -5 -11 -4 -6 3 4 7
14 12 23 12 13 0 13 3 3 15 -10 12 -9 16 5 21 12 5 24 -1 36 -17 16 -20 20
-22 29 -9 12 19 12 27 0 35 -6 3 -7 -1 -4 -9 3 -9 1 -16 -5 -16 -13 0 -31 33
-31 58 0 11 -7 23 -16 26 -9 4 -14 13 -10 21 3 8 1 15 -4 15 -6 0 -10 6 -10
14 0 8 -4 18 -10 21 -5 3 -10 -3 -10 -14z"/>
<path d="M8110 4350 c0 -5 -8 -7 -17 -4 -16 5 -15 3 1 -10 25 -20 15 -31 -14
-16 -12 6 -23 10 -25 8 -11 -13 -25 -50 -25 -67 0 -31 20 -25 33 9 13 35 37
40 37 8 1 -23 1 -23 16 -3 15 20 15 20 30 1 16 -23 18 -42 4 -51 -5 -3 -10 1
-10 10 0 11 -7 15 -22 13 -14 -2 -23 -10 -23 -21 0 -10 -5 -21 -10 -25 -6 -4
-10 -20 -10 -36 0 -16 -5 -31 -12 -33 -9 -3 -11 9 -9 46 3 39 0 51 -10 51 -19
0 -18 -63 1 -100 10 -19 20 -27 30 -24 8 4 15 10 15 14 0 14 39 18 50 5 14
-17 -14 -35 -41 -28 -11 3 -19 1 -19 -5 0 -16 43 -22 73 -9 31 14 33 22 12 43
-8 9 -15 20 -15 27 0 6 7 2 16 -9 15 -18 15 -18 9 6 -9 31 -9 47 -1 83 4 18 2
27 -6 27 -9 0 -8 3 2 10 13 9 13 10 0 10 -10 0 -15 11 -16 31 -1 17 -7 35 -15
40 -18 11 -29 11 -29 -1z"/>
<path d="M8260 4290 c0 -30 4 -50 11 -50 8 0 8 -4 1 -12 -14 -19 -15 -135 0
-144 38 -24 92 3 79 40 -7 17 -9 16 -30 -10 -15 -18 -25 -24 -28 -16 -3 6 -9
10 -14 6 -5 -3 -9 0 -9 5 0 6 4 11 9 11 5 0 11 9 14 20 3 11 1 20 -5 20 -10 0
-1 61 11 70 3 3 11 14 17 24 14 26 36 34 27 9 -3 -10 -13 -26 -21 -35 -12 -14
-12 -20 -2 -33 13 -16 35 -21 26 -6 -3 5 1 14 9 21 8 7 13 16 10 20 -3 5 -1
11 5 15 14 8 13 85 -1 85 -6 0 -19 -10 -30 -22 -13 -17 -19 -19 -19 -8 0 11
-6 9 -19 -7 -21 -25 -35 -20 -20 9 10 19 5 38 -12 38 -5 0 -9 -22 -9 -50z"/>
<path d="M7096 4357 c-20 -15 -35 -97 -17 -97 6 0 11 -5 11 -11 0 -5 -4 -7
-10 -4 -5 3 -10 -1 -10 -9 0 -9 5 -16 10 -16 6 0 10 -9 10 -20 0 -18 26 -40
49 -40 28 0 51 41 51 90 0 91 -45 143 -94 107z"/>
<path d="M7295 4332 l-31 -3 6 -54 c3 -30 3 -55 0 -55 -4 0 -13 -12 -20 -26
-8 -14 -28 -33 -45 -41 -16 -9 -38 -25 -49 -37 l-18 -21 7 23 c6 22 5 23 -37
20 -35 -2 -44 -7 -46 -24 -3 -19 3 -21 75 -27 52 -4 80 -2 84 5 5 8 12 6 23
-5 9 -9 25 -19 36 -22 11 -3 20 -10 20 -15 0 -12 63 0 72 14 4 6 8 68 8 137
l0 127 -27 3 c-16 2 -42 3 -58 1z"/>
<path d="M7044 4005 c-38 -54 15 -90 124 -83 55 4 68 8 88 31 13 15 21 34 18
42 -8 19 -29 24 -133 27 -74 3 -85 1 -97 -17z"/>
<path d="M9078 3473 c-10 -2 -18 -9 -18 -14 0 -5 -9 -18 -20 -29 -16 -16 -20
-33 -20 -84 0 -72 7 -99 23 -89 6 4 8 0 4 -9 -7 -21 32 -58 62 -58 41 0 61 18
61 55 l0 35 -34 -14 c-30 -12 -34 -12 -29 0 3 8 9 12 13 9 4 -2 18 5 31 17
l24 21 -27 -5 c-16 -3 -28 -2 -28 2 0 12 36 40 43 33 10 -9 8 80 -2 95 -4 8
-12 13 -17 13 -5 -1 -9 5 -9 12 0 13 -29 18 -57 10z"/>
<path d="M4427 3468 c-24 -19 -37 -62 -37 -122 0 -66 15 -113 48 -148 75 -81
154 28 123 168 -21 93 -83 140 -134 102z"/>
<path d="M6874 3482 c-34 -22 -43 -90 -21 -145 42 -100 127 -56 114 59 -7 67
-55 111 -93 86z"/>
<path d="M6821 3136 c-5 -6 -12 -23 -16 -39 -7 -24 -4 -29 31 -43 53 -22 161
-16 180 11 8 10 14 15 14 9 0 -16 20 20 20 38 0 20 -25 25 -143 31 -49 3 -80
0 -86 -7z"/>
<path d="M8279 3449 c-12 -17 -24 -50 -27 -74 -5 -53 15 -142 35 -153 8 -5 14
-13 12 -18 -4 -16 46 -37 72 -31 35 9 51 43 57 117 3 53 1 69 -13 83 -9 9 -11
17 -5 17 13 0 -17 59 -40 77 -28 23 -67 15 -91 -18z"/>
<path d="M8666 3461 c-37 -40 -42 -122 -15 -209 6 -18 14 -30 19 -27 4 3 7 -3
6 -12 -2 -23 45 -48 75 -40 27 7 59 49 41 55 -6 2 -8 10 -5 18 3 7 9 11 14 8
5 -3 9 22 9 56 0 55 -2 61 -25 70 -27 10 -31 20 -14 37 8 8 8 17 0 31 -14 26
-42 36 -53 20 -8 -10 -11 -10 -15 0 -7 17 -17 15 -37 -7z"/>
<path d="M6620 2415 c-26 -26 -37 -32 -47 -24 -7 6 -13 7 -13 2 0 -5 23 -31
50 -58 l50 -49 50 49 c28 27 50 53 50 58 0 5 -6 4 -13 -2 -10 -8 -21 -2 -47
24 -19 19 -37 35 -40 35 -3 0 -21 -16 -40 -35z"/>
<path d="M7830 6535 c0 -15 234 -392 251 -404 51 -36 33 13 -75 204 -107 188
-115 200 -145 203 -17 2 -31 1 -31 -3z"/>
<path d="M8202 6348 c61 -106 171 -299 243 -428 73 -129 146 -260 164 -291 29
-53 50 -68 89 -69 8 0 0 23 -22 63 -19 34 -53 96 -75 137 -22 41 -45 74 -52
72 -6 -1 -7 2 -4 8 4 6 -33 84 -83 173 -49 89 -134 244 -188 344 -54 100 -101
177 -105 172 -5 -8 -9 -8 -13 0 -4 6 -20 11 -36 11 l-29 0 111 -192z"/>
<path d="M8390 6536 c0 -7 139 -264 208 -386 36 -63 93 -164 127 -225 34 -60
90 -159 124 -218 33 -60 61 -113 61 -118 0 -5 5 -9 10 -9 6 0 10 -9 10 -20 0
-18 39 -64 47 -56 2 2 -29 64 -70 137 -40 74 -87 159 -104 189 -282 519 -390
710 -400 710 -7 0 -13 -2 -13 -4z"/>
<path d="M8640 6534 c0 -3 42 -76 93 -162 51 -86 104 -176 117 -199 22 -40 26
-42 65 -41 l43 0 -52 92 c-29 50 -81 142 -116 204 -64 114 -90 144 -48 56 13
-27 25 -51 28 -54 8 -8 48 -79 90 -162 26 -50 35 -75 25 -72 -8 4 -15 12 -15
20 0 8 -5 14 -10 14 -6 0 -16 12 -23 28 -6 15 -20 36 -29 46 -10 10 -15 22
-13 26 2 4 -4 16 -14 26 -9 11 -16 25 -13 32 2 6 -1 12 -8 12 -6 0 -9 4 -5 9
3 5 -4 16 -16 25 -12 8 -18 19 -15 25 4 5 1 13 -7 18 -7 4 -18 20 -24 36 -8
16 -20 27 -33 27 -11 0 -20 -3 -20 -6z"/>
<path d="M8915 6090 c-17 -7 -18 -9 -4 -14 9 -4 16 -13 16 -20 0 -13 56 -114
163 -296 31 -52 87 -149 125 -215 38 -66 76 -128 84 -139 16 -19 80 -51 87
-43 3 2 -26 58 -62 123 -216 382 -334 586 -334 576 0 -7 -7 -12 -15 -12 -8 0
-15 4 -15 8 0 21 -26 40 -45 32z"/>
<path d="M8143 6073 c3 -13 0 -23 -9 -25 -9 -2 29 -76 113 -218 69 -118 126
-216 127 -217 0 -1 14 -5 29 -8 26 -7 21 4 -84 186 -143 246 -182 309 -176
282z"/>
<path d="M6841 6028 c7 -13 63 -112 125 -220 62 -108 127 -224 144 -258 26
-51 34 -60 46 -50 7 7 14 16 14 21 0 19 -315 529 -327 529 -11 0 -11 -4 -2
-22z"/>
<path d="M5269 4001 c-24 -30 -24 -34 2 -57 32 -29 153 -32 197 -5 22 14 32
28 32 46 0 30 -12 33 -129 37 -78 3 -85 2 -102 -21z"/>
<path d="M8720 1551 c0 -8 33 -66 73 -129 39 -62 92 -146 116 -185 24 -40 112
-178 194 -307 82 -129 210 -331 285 -447 118 -187 153 -234 152 -205 0 4 -47
79 -105 167 -57 88 -226 354 -376 590 -329 518 -339 533 -339 516z"/>
<path d="M8668 1202 c-32 -2 -58 -6 -58 -10 1 -4 25 -45 55 -92 30 -47 68
-110 86 -140 17 -30 126 -198 242 -372 l211 -318 58 0 c45 0 57 3 52 12 -5 7
-106 166 -225 353 -120 187 -233 365 -252 395 -19 30 -52 82 -73 115 l-39 60
-57 -3z"/>
<path d="M7270 1196 c0 -6 315 -460 575 -828 l68 -98 74 0 73 0 -17 28 c-19
29 -33 50 -390 570 l-228 332 -77 0 c-43 0 -78 -2 -78 -4z"/>
<path d="M7830 1194 c0 -2 30 -47 67 -101 37 -54 178 -260 314 -457 135 -198
251 -362 258 -364 10 -3 11 1 2 19 l-12 24 17 -23 c20 -27 84 -32 84 -6 0 9 5
12 12 8 7 -4 8 -3 4 4 -4 7 -18 12 -32 12 -13 0 -24 5 -24 10 0 6 5 10 11 10
5 0 7 5 4 10 -4 6 -10 8 -15 5 -5 -3 -11 4 -15 15 -3 11 -11 20 -16 20 -5 0
-8 3 -7 8 3 15 -15 42 -28 42 -8 0 -13 6 -11 13 1 6 -4 11 -12 9 -12 -3 -12 0
-1 12 7 9 8 16 2 16 -5 0 -12 10 -16 23 -5 17 -8 19 -15 8 -6 -9 -11 -10 -15
-2 -4 6 -2 11 3 11 19 0 12 28 -9 35 -11 4 -18 10 -16 14 3 4 -7 20 -22 36
-15 16 -26 33 -25 36 1 4 -8 18 -20 31 -13 14 -21 31 -19 38 3 7 -5 20 -17 29
-12 9 -23 26 -24 38 0 12 -6 19 -13 16 -9 -3 -11 3 -7 18 5 17 3 21 -9 16 -10
-3 -20 4 -29 21 -8 15 -20 31 -27 35 -7 5 -10 12 -7 18 4 5 0 9 -7 9 -10 0
-10 2 1 9 10 6 5 12 -18 22 -17 8 -29 19 -27 26 9 22 -32 99 -81 153 -13 14
-23 30 -23 36 0 28 -38 45 -99 43 -33 -1 -61 -3 -61 -5z"/>
<path d="M8210 888 c116 -172 257 -380 313 -463 l102 -150 82 -2 c78 -1 81 0
70 18 -7 11 -13 15 -15 9 -2 -5 -8 -10 -14 -10 -5 0 -7 9 -3 19 4 13 -10 41
-41 87 -45 68 -87 118 -69 84 4 -8 18 -28 29 -45 43 -61 78 -117 67 -111 -11
7 -181 252 -181 261 0 4 5 3 12 -1 7 -4 8 -3 4 5 -4 6 -11 9 -16 6 -11 -7 -41
41 -34 58 3 8 -3 20 -13 28 -16 13 -17 12 -4 -4 8 -9 11 -20 8 -23 -2 -3 -26
25 -51 63 -26 37 -83 120 -127 183 -44 63 -108 157 -142 207 l-62 93 -63 0
-63 0 211 -312z"/>
<path d="M8220 1194 c0 -3 13 -25 28 -48 16 -22 57 -81 90 -130 34 -50 62 -95
62 -102 0 -7 6 -17 13 -21 18 -10 107 -144 107 -160 0 -6 3 -13 8 -15 12 -5
85 -108 76 -108 -4 0 2 -10 14 -22 11 -13 45 -59 74 -102 107 -160 123 -184
133 -202 6 -9 16 -15 22 -13 15 5 -597 928 -614 929 -7 0 -13 -3 -13 -6z"/>
<path d="M9106 1090 c4 -8 61 -95 126 -192 65 -98 118 -180 118 -182 0 -2 18
-31 40 -64 22 -33 40 -64 40 -70 0 -6 5 -12 11 -14 5 -2 11 -12 13 -22 1 -10
9 -24 18 -30 19 -14 49 -72 41 -80 -4 -3 0 -6 8 -6 8 0 19 -10 25 -23 44 -84
57 -107 74 -122 10 -9 23 -15 28 -14 8 4 -510 796 -538 822 -10 10 -11 9 -4
-3z"/>
</g>
</svg>
